<svg id="Calque_1" data-name="Calque 1" xmlns="http://www.w3.org/2000/svg" viewBox="0 0 352.32 352.32"><defs><style>.cls-1{fill:#fdfdfd;}.cls-2{fill:#023155;}.cls-3{fill:#e20713;}.cls-4{fill:#064d88;}.cls-5{fill:#9ea09e;}.cls-6{fill:#bf1d27;}.cls-7{fill:#f4f5f8;}</style></defs><title>AgreÌment Entreprise Solidaire copie</title><path class="cls-1" d="M352.32,166.56v4.32c-.92,3.16-.17,6.4-.4,9.59-.07,1.11-.54,2.35.4,3.37v4.8c-1,.47-.68,1.47-.79,2.23-.3,2.09-.45,4.21-.66,6.31-.55.1-1.1.18-1.65.3L169.81,237.64l-142.92,32a151.35,151.35,0,0,1-10.71-19.76A107,107,0,0,1,9.59,233q20.82-4.64,41.65-9.25a2.49,2.49,0,0,0,1.87-1.29,10,10,0,0,1,4.13-3.89c2.7-1.55,5.47-3,8.2-4.44,2.23-1.2,4.94-1.05,8.08-1.5-2.48,2.88-5.09,4.65-6.84,7.22-.16.05-.44.05-.28.33,0,.05.34-.06.52-.1L81.62,217c1.49.3,2.49-.77,3.52-1.47s.59-1.38-.57-1.56a25.92,25.92,0,0,1,7.51-6.23c5.79-3.49,12.15-5.71,18.46-7.94,7.68-2.72,13.18-7.92,17.74-14.34a8.62,8.62,0,0,0,1.67-6.88c-7.43,12.3-17.84,20.07-32.12,22.2-.21-2.42,2.6-2.45,3.4-4.17-1.17-.37-1.83.55-2.68.86-.5.19-1.12.67-1.44,0a1.41,1.41,0,0,1,.24-1.56c2.05-2,3.92-4.24,6.17-6.09,2-1.67,4-3.46,6-5.21.33-.28,1-.77.68-1-1.81-1.25,0-1.42.53-1.83,1.82-1.42,3.72-2.76,5.57-4.15a4.7,4.7,0,0,0,.71-.82c-2.81-.91.12-1.74.19-2.53.23-2.36,1.19-4.56,4.14-5.44-1.87-.66-2.36-1.58-1.69-3.2.88-2.11.47-4.43.72-6.64,0-.38.17-.85-.35-1s-.71.17-1,.53c-2.56,3.8-6.41,5.94-10.35,7.91s-8.2,3.73-12.55.38a9.94,9.94,0,0,0-3.61-1.21c-9.42-2.32-18.87-1.64-28.31-.1a4,4,0,0,1-3.17-.22c7.51-3.05,13.92-7.13,21.11-10.58a5.64,5.64,0,0,0-1.14,0c-7.42,2.4-14.23,6.08-20.91,10a5.05,5.05,0,0,0-2.5,2.9l.06,0c-.48-.52-2.73,1.09-1.65-1.17,2.32-4.86,5.32-9.1,10.83-10.87,10-3.2,20.38-3.69,30.8-3.69a2.35,2.35,0,0,1,1.91.8,4.44,4.44,0,0,0,5,1.28,7.92,7.92,0,0,1,3.54.1c-1-2.52.47-2.82,2.35-2.85.77,0,1.63-.12,2-1s-.33-1.62-1-2.23c-.34-.34-.71-.65-1.07-1l.74-.36c2.46,1.08,4.8,2.57,7.68,2.32.93-.08,2.09.21,2.59-.8s-.57-1.7-1.18-2.37a48.28,48.28,0,0,0-6.7-5.4,12.19,12.19,0,0,1-2.24-2.08A45.42,45.42,0,0,1,105,127.41c-2.44-5.79-4.9-11.61-7.74-17.22-2.68-5.3-2.34-10.47-.79-16,2.69-9.67,7.58-18.39,11.48-27.53,2.83-6.65,7.66-11.45,13.72-15.18a137.65,137.65,0,0,1,23.67-11.2L149.22,39a118.18,118.18,0,0,1,26-5.26c7.14-.64,14.31-1.29,21.46-.2,4.53.7,8.94,1.82,12.29,5.29a7.31,7.31,0,0,1,2,7.68c-.9,2.81-3.34,3.66-5.87,4.33-1,.28-2.23-.07-3.26.8,4.36,1,8.35,2.48,11.56,5.58a2,2,0,0,0,1.73.65c1.32-.2,2.18-.08,1.33,1.56-.22.43-.35,1,.2,1.25a1.11,1.11,0,0,0,1.4-.63,13.83,13.83,0,0,0,.54-1.57c.69-2,1.77-2.27,3.31-.8s1.78,3.41-.36,5.63c-1.93,2-1.66,3.51-.08,5.45,4.68,5.73,6.75,12.82,9.74,19.41a21.19,21.19,0,0,1,1.37,5.55c.45,2.88,0,5.94,2,8.48A56.38,56.38,0,0,0,241,109c2.94,2.7,6.06,5.25,8.47,8.45,2.1,2.8,1.43,5.26-1.54,7-.83.47-1.7.87-2.52,1.36-1.89,1.15-2.24,2.5-1.11,4.42a8.46,8.46,0,0,0,1.45,1.9c1.78,1.67,1.59,3.35.12,5-.76.87-1.64,1.64-2.53,2.51,4.88,1.7,5.47,3.61,2.46,7.74-1.05,1.43-1.25,2.73,0,4.07a4.85,4.85,0,0,1,1.35,2.74c1.26,8.44-4,12.24-10.8,12.63-5.56.31-11.15.36-16.72.77a12.75,12.75,0,0,0-10.6,6.4,35.37,35.37,0,0,0-4.7,12.47c-.53,3.08-.54,3.07,2.5,2.39Q259,177.19,311,165.54q20-4.48,40-9c.14,1.17.27,2.34.42,3.51C351.71,162.19,351.39,164.46,352.32,166.56Zm-144-67.2a10.58,10.58,0,0,0,3.27-1.42c3-1.42,6-2.56,9.38-2.43.67,0,1.6-.4,2,.37s-.23,1.64-.78,2.12c-3.28,2.78-4.93,7.14-9.07,9.22,1.3,1.36,2.85,1.27,4.46,1.25,1.22,0,2.88.07,3.23,1.31.49,1.73-1.46,1.41-2.4,1.94a3.76,3.76,0,0,0-.53.56,12.54,12.54,0,0,0,1.4,0c2.21-.29,4.63-.42,6.18-2.14,1.3-1.43-.09-3.21-.37-4.78-.36-2-.26-3.59,1.77-4.58.43-.21,1-.85.67-1.12-1.71-1.65.1-2.65.62-3.86,1.18-2.7.3-3.91-2.5-4.26a14.41,14.41,0,0,0-8.94,1.79c-3,1.64-6.4,2.88-8.36,6l-.21,0,.14.17Zm8.34,105.45c2.2,4.05,4.44,8.08,6.59,12.16,1,1.92,2.34.59,3.52.46,1.38-.16.68-1.18.54-1.85-1.49-6.68-3-13.34-4.48-20-.26-1.23-.46-1.79-2-1.43s-1.73.89-1.38,2.26c.78,3.09,1.41,6.21,2.11,9.31l-.47.37c-1.46-2.66-3.11-5.23-4.3-8-1-2.46-2.45-2.83-4.77-2-1.05.4-1.32.62-1.05,1.78,1.58,6.76,3.06,13.54,4.53,20.32.26,1.2.52,1.73,2,1.39s1.65-.95,1.34-2.27c-1-4-1.82-8.09-2.72-12.14Zm-68.3-20c-.62-1.41-1.68-.86-2.64-.56-2.91.91-4.75,3.11-6.53,5.41-.51.67-.82,1.83-1.79,1.77-2.29-.12-3.41,1.58-4.75,2.84-3.53,3.33-6.3,7.43-11.06,9.5-2.38,1-4.53,2.72-7.16,3.13a45.58,45.58,0,0,0-12.62,4.34c-.76.36-2,.06-2.3,1.39a8,8,0,0,0,1.7,0q17.4-3.92,34.79-7.88a2.78,2.78,0,0,0,2.13-1.32A101.19,101.19,0,0,1,149,186.8c.28-.34,1.2-1.16-.17-1.49Zm46.25,25.59c.94,4.11,1.85,7.8,2.59,11.53.29,1.41.59,2.11,2.29,1.74s1.46-1.18,1.18-2.39c-1.5-6.54-2.94-13.09-4.4-19.64-.23-1-.37-2.29-1.88-1.49-1.22.64-3.72-.59-3.44,2.39.43,4.6.69,9.22,1,13.83a96.8,96.8,0,0,1-4.86-11.07c-1.34-3.47-1.29-3.39-4.88-2.52-1.28.31-1.47.83-1.21,2,1.57,6.84,3.15,13.68,4.63,20.54.26,1.24.72,1.35,1.78,1,.91-.29,1.92-.2,1.48-1.74-.73-2.61-1.25-5.27-1.94-7.89-.14-.55-.53-1.27,0-1.5.84-.39,1,.51,1.18,1.08,1,2.59,2.16,5.15,3.1,7.78.46,1.29,1.23,1.27,2.23.93.82-.29,1.9-.13,1.7-1.7-.38-3.09-.56-6.2-.72-9.31C194.41,212.9,193.32,211.92,194.61,210.4Zm-26.9,5.53c-.21-1.16-.35-2.11-.55-3-1.12-5-2.83-6.07-7.82-5-1,.22-2,.57-3,.7-1.19.16-1.33.65-1.07,1.76q2.38,10.26,4.59,20.54c.27,1.28.75,1.51,1.95,1.11,1-.36,2.31-.19,1.8-2-.57-2.07-1-4.19-1.41-6.3-.1-.53-.76-1.21.2-1.64a2.38,2.38,0,0,1,2.07-.09,2.78,2.78,0,0,1,1.38,2.12c.42,1.79.82,3.58,1.31,5.35s1.76.93,2.74.7c.42-.1,1.44.15,1.14-1-.7-2.53-1-5.3-2.2-7.52C167.7,219.7,166,218.16,167.71,215.93ZM143,215.52a158.68,158.68,0,0,0,3.5,15.89,5.07,5.07,0,0,0,6.22,3.15c3-.7,4.55-2.67,4.23-5.73a53.89,53.89,0,0,0-1.16-5.87c-.75-3.39-.78-3.42-4.08-2.48-.56.15-1.75,0-1.47,1.07.23.9-.32,2.49,1.49,2.43.66,0,.79.33.9.83.29,1.33.64,2.64.88,4a1.87,1.87,0,0,1-1.44,2.39c-1.23.28-1.95-.49-2.26-1.61s-.51-2.18-.76-3.27c-.75-3.43-1.52-6.85-2.25-10.28-.24-1.12-.06-2.15,1.23-2.48s2.08.43,2.43,1.65a6.15,6.15,0,0,1,.26,1.17c.11,1.25.64,1.62,1.9,1.25,1.06-.31,2.12-.36,1.54-1.93-.24-.67-.32-1.4-.56-2.07a4.88,4.88,0,0,0-6-3.49C144.49,210.67,143,212.45,143,215.52Zm-6.81,19.9c-.73-1.78.49-2.1,2-2.63,2.47-.86,2.79.8,3.29,2.33.68,2.07,2,.87,3.13.7,1.71-.27.62-1.31.38-1.94-2.3-5.87-4.64-11.73-7-17.59-1.36-3.4-1.34-3.3-4.85-2.55-1.57.33-1.79,1.07-1.69,2.47.49,6.77.95,13.54,1.28,20.32.09,1.7.64,1.84,2.13,1.58C136.68,237.79,136.19,236.65,136.18,235.42Zm41.25-31.52c-2.5.56-5.22,1.18-8,1.77-1.14.24-.74,1-.59,1.64q2.28,10.27,4.55,20.57c.22,1,.51,1.49,1.73,1.16,2.39-.64,4.82-1.12,7.25-1.59,1.2-.23,1.28-.85,1-1.88s-.37-1.93-1.79-1.46c-.68.22-1.44.22-2.09.5-2.28,1-3.37.18-3.46-2.22a5.29,5.29,0,0,0-.21-.94c-.75-3.23-.77-3.41,2.36-3.89,2.24-.35,1.86-1.53,1.35-2.84-.61-1.53-1.75-.34-2.65-.39s-2.11,1.26-2.77-.53c-1.81-4.9-1.61-5.32,3.26-6.44.32-.07.63-.11.94-.19,1.12-.28.73-1.1.52-1.72S179,203.65,177.43,203.9Zm27.1,18.55c2.52-.56,4.84-1.11,7.18-1.61,1.12-.23,2.12-.21,1.76-2s-1.3-1.62-2.53-1.32c-.93.23-1.89.37-2.78.68-1.36.49-1.89-.22-1.77-1.33.2-1.89-2.48-3.85.06-5.61a5.69,5.69,0,0,1,2.31-.54c1-.15,1.27-.48,1.15-1.58-.22-2-1.28-2.07-2.77-1.56-1.68.57-2.88.78-3.3-1.68-.72-4.23-.9-4.2,3.54-5.23a3.54,3.54,0,0,1,.47-.07c1.18-.13,1.37-.74,1.06-1.82s-.27-1.91-1.75-1.54c-2.47.63-5,1.14-7.48,1.66-.92.19-1.1.7-.91,1.55q2.39,10.49,4.73,21C203.65,222.14,203.79,222.72,204.53,222.45Zm30.28-31.4c-2.87.64-5.6,1.24-8.32,1.89-1,.24-2.43-.11-2,2s1.41,1.8,2.64,1.32c1.54-.62,1.83.1,2.1,1.41,1.16,5.47,2.43,10.9,3.62,16.36.27,1.25.38,2.1,2.22,1.68s1.84-1.16,1.5-2.61c-1.16-4.9-2.16-9.84-3.36-14.72-.52-2.11-1-3.9,2.13-4,1.18,0,1-.94.68-1.57S236.17,190.83,234.81,191.05ZM171.57,204c3.35.17,3.19-2.86,4.81-4.41C172.83,199.07,172.1,201.28,171.57,204Z"/><path class="cls-2" d="M26.89,269.64l142.92-32,179.41-40.16c.55-.12,1.1-.2,1.65-.3a127.63,127.63,0,0,1-3.69,20.92,176.84,176.84,0,0,1-61,95.57A172.65,172.65,0,0,1,231,343.47a178.36,178.36,0,0,1-37.51,8c-1.92.19-4-.19-5.81.84H163.2c-.52-.73-1.31-.45-2-.49-4.69-.32-9.34-1-14-1.77A176.65,176.65,0,0,1,108.5,339a173.47,173.47,0,0,1-37.8-21.42c-12.55-9.43-24-20.09-33.35-32.77C33.69,279.85,29.92,275,26.89,269.64Zm70.9,9,.54-.18c.19.33.39.64.56,1,2.06,3.88,4.19,7.72,6.14,11.64,1,2,2.31.74,3.47.59,1.5-.18.72-1.25.55-2q-2.19-9.94-4.41-19.87a1.89,1.89,0,0,0-3.16-1c-.78.7-.15,1.49,0,2.2.55,3.19,1.77,6.27,1.74,10.1-2-3.8-3.76-7.12-5.59-10.37-1.21-2.15-2.82-.2-4.21-.15s-.59,1.17-.44,1.88c1.46,6.54,3,13.07,4.36,19.63.31,1.45.64,2.1,2.29,1.71s1.24-1.47,1-2.54Q99.19,284.9,97.79,278.61ZM169,263.16a47.83,47.83,0,0,0-1.17-4.87c-1-2.71-2.75-3.72-5.62-3.25-1.58.25-3.12.71-4.68,1-1,.2-1.28.69-1.05,1.67,1.59,6.93,3.21,13.84,4.66,20.79.4,1.93,1.44.89,2.28.84,1.05-.07,1.8-.34,1.37-1.78-.59-2-.95-4-1.36-6.08-.15-.76-.91-1.76.54-2.11,1.09-.26,2.15-.22,2.66,1a21.15,21.15,0,0,1,.83,2.74c.35,1.31.6,2.65,1,3.94.5,1.55,1.66.85,2.58.58.46-.14,1.48.18,1.15-1-.65-2.38-1-4.89-2-7.11S166.79,265.7,169,263.16Zm-43.68.18-6.08,1.27c-1.07.23-.81,1-.66,1.71,1.54,6.85,3.16,13.67,4.59,20.54.37,1.76,1.32,1.2,2.25,1s1.92-.21,1.45-1.76c-.62-2.06-1-4.2-1.44-6.31-.11-.57-.65-1.32.1-1.72a2.31,2.31,0,0,1,3.58,1.79c.42,1.7.76,3.43,1.2,5.13.28,1.12.77,1.76,2.21,1.3,1.28-.4,2.17-.4,1.44-2.21-1.21-3-.52-6.83-4-8.8-.36-.21-.14-.5,0-.79,1.74-2.72.65-5.42-.23-8A4.3,4.3,0,0,0,125.35,263.34Zm-.7,54.78c-1.07-4.47-1.81-9.77-3.56-14.84a4.15,4.15,0,0,0-4.21-2.9c-2.28-.05-4.37.84-6.58,1.15-.86.13-.89.69-.73,1.42,1.58,7,3.16,14,4.69,21,.2.89.6,1.25,1.49,1,2-.51,4-.91,6-1.58S124.63,321,124.65,318.12Zm130.67-83.89c-1.13.24-3,.68-4.87,1-1.3.22-1.41.83-1.14,2,1.28,5.42,2.47,10.86,3.67,16.3,1.27,5.79,1.26,5.8,7,4.21a8.68,8.68,0,0,0,1.11-.41,4.39,4.39,0,0,0,3.06-5.06,101.37,101.37,0,0,0-3.35-14.91C260.14,235.09,258.43,234.1,255.32,234.23Zm39.52.81c-.78-8.39-3.52-9.29-9.27-7.61a10.79,10.79,0,0,1-2.1.46c-1.09.11-1.19.54-1,1.58q2.39,10.36,4.6,20.77c.3,1.36,1,1.31,2.06,1s2.11-.21,1.66-1.86c-.57-2.07-1-4.19-1.41-6.3-.11-.58-.84-1.37.31-1.79a2.29,2.29,0,0,1,2.47.23,3.77,3.77,0,0,1,1,2.13c.44,1.7.85,3.4,1.25,5.11.35,1.46,1.43,1,2.28.76.54-.15,1.73.12,1.5-.92a30.49,30.49,0,0,0-2-7.33C295.1,239.07,293.12,237.32,294.84,235Zm-61.94,24.9a129.8,129.8,0,0,0-3.57-16.08c-1.23-2.61-3.38-3.6-6.33-2.92-2.75.64-4.46,2.51-4.16,5.29a79.53,79.53,0,0,0,3.58,16.06c.86,2.6,3.32,3.61,6,3A5.12,5.12,0,0,0,232.9,259.94Zm1.35,33.69c-.24-1.16-.6-3-1-4.9-.79-3.33-1.43-6.72-2.48-10-.94-2.89-3.3-3.89-6.34-3.22-2.81.62-4.54,2.6-4.2,5.5a85.86,85.86,0,0,0,3.46,15.61c.87,2.78,3.26,3.85,6.12,3.29S234.34,297.37,234.25,293.63ZM144,314.26a11.6,11.6,0,0,0-.19-1.39c-1.2-5.37-2.47-10.73-3.6-16.11-.27-1.28-.62-1.81-2-1.51s-1.78.79-1.42,2.25c1.25,5.2,2.36,10.44,3.54,15.66.35,1.55.75,3.16-1.42,3.6-2,.41-2.34-1-2.67-2.56-1.19-5.45-2.49-10.88-3.66-16.34-.24-1.1-.66-1.39-1.58-.89-.76.4-2.51-.38-2.09,1.47,1.37,6.15,2.7,12.32,4.34,18.41.78,2.89,3.24,3.91,6.29,3.28S144,317.67,144,314.26Zm110.51-43.13c.43,6.59.82,13.21,1.34,19.82.07.8-1,2.43,1.17,2.37,1.93-.05,2.37-1,2.13-2.77-.09-.66-.58-1.53.37-2.16,2-1.31,3.95-.75,4.9,1.51a4.14,4.14,0,0,0,.36.89c1,1.33,2.18.21,3.2,0s.28-1,.1-1.49c-2.57-6.54-5.23-13.05-7.73-19.61-1.05-2.73-2.79-.76-4.19-.79S254.14,269.67,254.53,271.13Zm24.87-18c-2.69-6.83-5.51-13.59-8-20.46-.92-2.58-2.41-1.49-3.9-1.28s-2.34.65-2.18,2.55c.58,6.74.92,13.51,1.38,20.27,0,.64-.3,1.66.61,1.76a3.41,3.41,0,0,0,2.46-.66c.69-.66.23-1.83.06-2.69-.34-1.73.86-1.91,1.9-1.95s2.52-1.57,3,.7C275.35,254.14,276.92,254.55,279.4,253.17Zm-46.15,24.75c0,1.71,3,14.77,3.69,16.3a4.47,4.47,0,0,0,4.29,2.87,5.46,5.46,0,0,0,5.43-2.8c1.25-2.33.22-4.67-.34-7-.12-.49-.54-.43-1-.42-2.07,0-2.49.62-1.94,3,.35,1.51,1,3.25-1.14,3.72s-2.26-1.54-2.59-2.94c-.9-3.8-1.72-7.62-2.56-11.43-.29-1.34-.71-2.85,1.19-3.3s2.21,1.07,2.57,2.41a4.19,4.19,0,0,1,.1.71c.12,1.44,1,1.3,2,1.07s1.81-.54,1.34-1.87c-.26-.75-.32-1.57-.59-2.31-1-2.71-3.15-3.88-6.1-3.36A4.93,4.93,0,0,0,233.25,277.92ZM182.1,250.23a5.28,5.28,0,0,0-5.6,6,8.06,8.06,0,0,0,3.23,6.16c1.39,1.07,2.89,2,4.35,3a5.47,5.47,0,0,1,2.58,3.86,1.87,1.87,0,0,1-1.52,2.34,1.82,1.82,0,0,1-2.18-1.4,13,13,0,0,1-.33-1.4c-.26-1.11-1-.78-1.68-.53s-1.7-.17-1.73,1.15a5.64,5.64,0,0,0,5.45,5.59c3.36,0,5.7-2.27,5.63-5.46a8.73,8.73,0,0,0-4.2-7.38c-1.19-.8-2.44-1.52-3.6-2.37a5.47,5.47,0,0,1-2.4-4.23,1.63,1.63,0,0,1,1.25-1.79,1.74,1.74,0,0,1,2.11.64,3.62,3.62,0,0,1,.5,1.07c.57,1.85,1.8.69,2.73.55,1.45-.2.66-1.2.47-1.82C186.31,251.47,184.62,250.2,182.1,250.23Zm38.21,12.82c0-3.72-1.9-6.29-5-8.16-1.76-1.07-3.74-2-4.64-4-.57-1.27-1.36-2.82.42-3.75s2.4.33,2.93,1.76,1.7.46,2.58.38c1.15-.1.85-.91.65-1.6a5.24,5.24,0,0,0-6.11-4.09c-3.2.52-4.93,2.62-4.71,5.85a7.93,7.93,0,0,0,2.88,5.84c1.48,1.21,3.11,2.22,4.7,3.3a5.34,5.34,0,0,1,2.56,3.84c.15,1.21-.2,2.11-1.42,2.39a1.79,1.79,0,0,1-2.19-1.39,8.32,8.32,0,0,1-.35-1.39c-.17-.94-.8-.91-1.43-.62s-1.89-.22-2,1.2a5.76,5.76,0,0,0,5.16,5.6C217.75,268.36,220.28,266.16,220.31,263.05Zm-7.26,15.24c-3.66,0-5.85,2.2-5.7,5.82a8.08,8.08,0,0,0,3.16,6.19c1.43,1.14,3,2.09,4.53,3.12a5.12,5.12,0,0,1,2.43,3.66c.15,1.16-.08,2.11-1.35,2.42s-2-.41-2.35-1.5a11,11,0,0,1-.24-1.17c-.3-1.26-1.2-.73-1.92-.59s-1.57.06-1.47,1.35a5.42,5.42,0,0,0,5.86,5.32,5.14,5.14,0,0,0,5.17-5.85c-.24-3.64-2.4-5.94-5.36-7.7-1.71-1-3.55-2-4.34-3.94-.49-1.21-1.18-2.76.5-3.56s2.53.24,3,1.78,1.56.39,2.34.44,1.18-.19,1-1.16A5.4,5.4,0,0,0,213.05,278.29ZM157,267.21c-1-8.59-2.9-11-10.6-8.62a2.85,2.85,0,0,1-.7.12c-1.4.06-1.59.68-1.28,2q2.33,10,4.44,20c.3,1.43.91,1.76,2.28,1.42s1.94-.72,1.46-2.22c-.55-1.75-.76-3.59-1.29-5.34-.42-1.41,0-1.88,1.39-2.24C155.89,271.55,157,270.06,157,267.21Zm-15.57,13.61c-1.35.14-1.37.14-1.71-1.1-.21-.77-.35-1.56-.52-2.34-.7-3.15-.71-3.22,2.39-3.89,1.53-.33,1.83-.92,1.48-2.42-.57-2.42-2.14-.94-3-.7-1.94.57-2.59.14-3-1.88-.72-4.14-.85-4.12,3.37-5.13a3.5,3.5,0,0,1,.68-.2c1.62-.06,1.15-1.05,1-2s-.32-1.68-1.64-1.33c-2.38.63-4.79,1.21-7.22,1.66-1.18.21-1.41.62-1.15,1.74,1.58,6.84,3.14,13.68,4.61,20.55.29,1.36.84,1.42,2,1.13,2.08-.55,4.2-1,6.31-1.41,1.26-.26,2.16-.44,1.68-2.26s-1.26-1.39-2.4-1.05C143.33,280.48,142.3,280.63,141.42,280.82Zm57.22,22.11c-.76.27-1.2-.1-1.34-1s-.34-1.56-.51-2.34c-.73-3.3-.75-3.38,2.43-4.09,1.38-.31,1.79-.76,1.45-2.23s-1-1.53-2.19-1.09c-.66.25-1.4.29-2.09.49s-1.09,0-1.37-.79c-1.74-4.82-1.51-5.32,3.33-6.58a2.66,2.66,0,0,1,.47-.11c1.71-.07,1-1.18.89-2.05-.11-1.09-.53-1.55-1.72-1.24-2.31.6-4.63,1.21-7,1.59-1.52.25-1.48.93-1.2,2.13,1.15,4.89,2.19,9.8,3.31,14.7.5,2.25.4,5.45,1.82,6.45,1.64,1.14,4.45-.71,6.8-1,.31,0,.62-.17.93-.23,1.12-.2,2.09-.22,1.67-2s-1.22-1.65-2.52-1.24A30.59,30.59,0,0,1,198.64,302.93Zm84-29.6c-.41.15-.69-.17-1-.94-1.75-4.89-1.59-5.23,3.45-6.49l.24,0c1.2-.12,1.4-.8,1.06-1.84-.28-.87-.22-1.93-1.75-1.51a54.13,54.13,0,0,1-6.54,1.45c-1.63.24-2.05.83-1.65,2.45,1.09,4.49,2,9,3.07,13.52.64,2.61.28,6.59,2.17,7.49s5.27-.81,8-1.38l.47-.11c.71-.18.91-.5.85-1.34-.15-2.41-1.52-2-3.1-1.66-3.66.9-3.67.87-4.49-2.71,0-.08-.05-.16-.06-.23-.74-3.2-.75-3.24,2.4-3.92,1.08-.24,2-.26,1.6-1.89-.34-1.42-.88-1.9-2.27-1.45C284.44,272.94,283.73,273.07,282.65,273.33ZM302.49,234c-.38.14-.76,0-1.07-.82-1.85-4.69-1.5-5.42,3.34-6.57l.24,0c1.14-.08,1.51-.63,1.2-1.76s-.38-2-1.95-1.59c-2.3.62-4.65,1.09-7,1.57-1.09.22-1.38.71-1.13,1.82q2.4,10.36,4.67,20.74c.23,1.09.63,1.17,1.6.93,2.39-.6,4.81-1.11,7.24-1.57,1.17-.22,1.3-.77,1-1.84s-.35-1.92-1.77-1.5c-.68.21-1.43.23-2.09.5-2.23.92-3.4.27-3.48-2.19a4.38,4.38,0,0,0-.2-.94c-.73-3.23-.75-3.31,2.55-4,1.34-.27,1.7-.68,1.38-2s-.88-1.71-2.13-1.31C304.25,233.59,303.53,233.71,302.49,234ZM91.65,283.43c-.14-1.28-.27-2.42-2.39-1.79-3,.89-3.1.7-3.76-2.31-.78-3.54-.78-3.53,2.78-4.3a10.05,10.05,0,0,1,1.39-.34c1.62-.11,1.11-1.17,1-2.07S90.26,271,89,271.37a47.85,47.85,0,0,1-6.76,1.53c-1.77.24-1.74,1.1-1.44,2.43,1.44,6.29,2.92,12.58,4.21,18.9.42,2.07,1.1,2.77,3.23,2a21,21,0,0,1,5.36-1.17c2.43-.21,1.92-1.74,1.38-3-.76-1.71-2.13-.29-3.09-.13-3.36.54-3.35.66-4.07-2.6,0-.08,0-.16,0-.24-.75-3.32-.74-3.3,2.52-4.22C90.87,284.73,92.06,284.94,91.65,283.43ZM197.89,268.2c-1,.34-1.32-.11-1.49-1-.27-1.41-.56-2.82-.94-4.2-.32-1.15-.18-1.85,1.2-1.93.71,0,1.39-.35,2.1-.45,1-.14,1.23-.5,1.11-1.59-.23-2.06-1.28-2-2.79-1.52s-2.75,1.15-3.2-1.38c-.8-4.51-1-4.49,3.65-5.57,1-.23,1.79-.27,1.41-1.77-.33-1.35-.67-2-2.17-1.57-2.24.58-4.51,1-6.77,1.52-1,.21-1.48.47-1.18,1.75q2.42,10.23,4.6,20.53c.28,1.28.77,1.5,2,1.18q3.24-.87,6.54-1.46c1.23-.22,1.82-.52,1.51-2s-1-1.72-2.32-1.35C200,267.73,198.94,268,197.89,268.2Zm-10.66,16.16c-2.87.63-5.75,1.28-8.63,1.88-1.19.25-2,.48-1.57,2.12s1.07,1.69,2.31,1.18c1.63-.68,2.13.18,2.44,1.64,1.13,5.38,2.35,10.73,3.53,16.09.24,1.08.27,2.22,2,1.73,1.44-.4,2.13-.78,1.69-2.51-1.23-4.95-2.2-10-3.42-14.92-.52-2.11-.93-3.84,2.13-3.94,1.35,0,.95-1.06.67-1.74S188.6,284.08,187.23,284.36Zm-69.86-17.44c-.07-1-.58-2-2.59-1.35-2.35.73-4.8,1.17-7.21,1.7-1.08.24-2.14.09-1.71,2s1.33,1.74,2.53,1.28c1.48-.58,1.85,0,2.15,1.38,1.15,5.54,2.51,11,3.66,16.58.31,1.48.89,1.75,2.26,1.44s1.84-.7,1.47-2.23c-1.31-5.35-2.38-10.76-3.71-16.1-.44-1.78-.16-2.63,1.74-2.8C116.65,268.73,117.72,268.87,117.37,266.92Zm36.27,48.67-.3-1.31c-1.17-5.21-2.26-10.44-3.56-15.62-.47-1.88-.14-2.83,1.86-2.92,1.24-.05,1.67-.5,1.25-1.81-.34-1-.4-1.94-1.93-1.53-2.69.72-5.42,1.26-8.14,1.86-1,.22-1.81.27-1.42,1.78.33,1.33.71,2.15,2.14,1.52,2-.85,2.36.16,2.7,1.81,1.12,5.45,2.37,10.88,3.58,16.31.19.85.29,1.86,1.63,1.26C152.26,316.57,153.69,317.11,153.64,315.59Zm21.3-5.07c-.07-1.34-.5-2.48-2.44-1.77-.59.22-1.29.19-1.85.45-1.79.83-2.28,0-2.63-1.64-1.15-5.56-2.52-11.08-3.64-16.64-.36-1.78-1.35-1.1-2.27-1s-1.78.22-1.42,1.74c1.61,6.83,3.1,13.7,4.58,20.56.25,1.17.71,1.53,1.93,1.21,2.23-.6,4.51-1,6.77-1.53C174.59,311.8,175.29,311.67,174.94,310.52Zm56.4-70.3c1.66,7.51,3.27,14.74,4.88,22,.17.76.6.75,1.25.59q3.72-.87,7.46-1.66c.66-.14,1-.4.87-1.13-.22-1.58-.48-2.62-2.65-2-3.79,1.09-3.82.92-4.65-2.81-1.1-5-2.26-10-3.32-15-.25-1.16-.8-1.53-1.81-1.14C232.62,239.39,231.28,239,231.34,240.22Zm36.23,26.16c-2.11,0-2.66.67-2.19,2.79,1,4.59,1.92,9.21,3.06,13.78.6,2.43.18,6.07,2.08,7s4.81-.84,7.31-1.25c1.42-.24,1.86-.68,1.5-2.18s-1-1.59-2.19-1.15c-.74.26-1.56.31-2.32.56-1.36.46-1.94.1-2.25-1.4-1.15-5.55-2.45-11.07-3.7-16.6C268.7,267.2,268.86,266.17,267.57,266.38ZM180.4,309.92c-1.69-7.57-3.28-14.74-4.89-21.91-.38-1.71-1.5-.49-2.29-.5-1.08,0-1.6.44-1.33,1.64,1.6,7,3.2,14,4.72,21,.28,1.29,1.08,1.06,1.76.79S180.49,311.08,180.4,309.92Zm-17.81,4c-.19-.87-.3-1.42-.42-2-1.4-6.23-2.83-12.45-4.18-18.68-.29-1.37-.42-2.35-2.33-1.93s-1.72,1.39-1.31,2.74c.3,1,.45,2,.68,3,1.26,5.59,2.57,11.17,3.74,16.78.26,1.26.76,1.39,1.75,1C161.3,314.63,162.55,315,162.59,313.89ZM251.12,259c-.07-.38-.09-.54-.13-.7-1.56-6.93-3.16-13.85-4.64-20.8-.41-1.91-1.56-.78-2.38-.73s-1.7.14-1.28,1.57c.69,2.37,1.1,4.82,1.63,7.23,1,4.51,2,9,3,13.54.23,1.06.7,1.53,1.8,1.09C249.88,259.86,251.16,260.24,251.12,259Zm-78.74-6.21c-.59.65-2.76-.47-2.31,1.62,1.49,7.09,3.13,14.15,4.71,21.22.35,1.58,1.45.86,2.27.71s1.75-.19,1.42-1.6c-1.63-7-3.17-14-4.74-21C173.59,253,173.46,252.4,172.38,252.76Zm75.17,18.08c-.17,1-2.64-.69-2.15,1.59,1.53,7.1,3.18,14.17,4.73,21.26.32,1.43,1.16,1,2,.71s2.09.08,1.71-1.58q-2.4-10.51-4.72-21.05C249,271.05,248.73,270.55,247.55,270.84ZM278.3,229.1c-.54.31-2.4-.3-1.83,2.07q2.43,10.11,4.56,20.3c.32,1.5,1,1.41,2.12,1.1s2-.2,1.58-1.87c-1.61-6.84-3.09-13.71-4.62-20.57C280,229.42,279.85,228.62,278.3,229.1ZM125,303.89c.55.34-.79,1.45.42,1.6,1,.12,1.15-.87,1.22-1.7.11-1.25.72-2.48.17-3.75-.3-.69.2-2.05-1.21-1.87-.87.11-2.31,0-2.47.89s-.22,2.55,1,2.9S125,303,125,303.89Zm67.61-22c3,0,3.08-2.66,4.46-4.45C193.47,277.78,193.33,277.92,192.64,281.9Z"/><path class="cls-3" d="M351,156.49q-20,4.53-40,9Q259,177.21,206.91,188.84c-3,.68-3,.69-2.5-2.39a35.37,35.37,0,0,1,4.7-12.47,12.75,12.75,0,0,1,10.6-6.4c5.57-.41,11.16-.46,16.72-.77,6.75-.39,12.06-4.19,10.8-12.63a4.85,4.85,0,0,0-1.35-2.74c-1.3-1.34-1.1-2.64,0-4.07,3-4.13,2.42-6-2.46-7.74.89-.87,1.77-1.64,2.53-2.51,1.47-1.69,1.66-3.37-.12-5a8.46,8.46,0,0,1-1.45-1.9c-1.13-1.92-.78-3.27,1.11-4.42.82-.49,1.69-.89,2.52-1.36,3-1.71,3.64-4.17,1.54-7-2.41-3.2-5.53-5.75-8.47-8.45a56.38,56.38,0,0,1-6.46-6.74c-2-2.54-1.56-5.6-2-8.48a21.19,21.19,0,0,0-1.37-5.55c-3-6.59-5.06-13.68-9.74-19.41-1.58-1.94-1.85-3.44.08-5.45,2.14-2.22,2-4.05.36-5.63s-2.62-1.21-3.31.8a13.83,13.83,0,0,1-.54,1.57,1.11,1.11,0,0,1-1.4.63c-.55-.22-.42-.82-.2-1.25.85-1.64,0-1.76-1.33-1.56a2,2,0,0,1-1.73-.65c-3.21-3.1-7.2-4.62-11.56-5.58,1-.87,2.22-.52,3.26-.8,2.53-.67,5-1.52,5.87-4.33a7.31,7.31,0,0,0-2-7.68c-3.35-3.47-7.76-4.59-12.29-5.29-7.15-1.09-14.32-.44-21.46.2a118.18,118.18,0,0,0-26,5.26l-3.86,1.23q-4-17.93-8-35.85a138.38,138.38,0,0,1,15.9-3c2.84-.46,5.85,0,8.53-1.4h28.8c.23.77.91.5,1.41.56,3.4.43,6.81.76,10.2,1.26A176.6,176.6,0,0,1,334.26,98.64,171.76,171.76,0,0,1,351,156.49Z"/><path class="cls-4" d="M137.33,4.42q4,17.92,8,35.85a137.65,137.65,0,0,0-23.67,11.2C115.63,55.2,110.8,60,108,66.65c-3.9,9.14-8.79,17.86-11.48,27.53-1.55,5.54-1.89,10.71.79,16,2.84,5.61,5.3,11.43,7.74,17.22a45.42,45.42,0,0,0,6.28,10.72,12.19,12.19,0,0,0,2.24,2.08,48.28,48.28,0,0,1,6.7,5.4c.61.67,1.72,1.26,1.18,2.37s-1.66.72-2.59.8c-2.88.25-5.22-1.24-7.68-2.32a11.6,11.6,0,0,0-4.1-2.35,6.44,6.44,0,0,0,3.36,2.71c.36.32.73.63,1.07,1,.62.61,1.37,1.17,1,2.23s-1.22,1-2,1c-1.88,0-3.35.33-2.35,2.85a7.92,7.92,0,0,0-3.54-.1,4.44,4.44,0,0,1-5-1.28,2.35,2.35,0,0,0-1.91-.8c-10.42,0-20.76.49-30.8,3.69-5.51,1.77-8.51,6-10.83,10.87-1.08,2.26,1.17.65,1.65,1.17a20.93,20.93,0,0,0-5.61,10.07c-.49,2.32-.11,2.76,2.26,2.3,1.36-.26,2.71-.6,4.51-1-1.65,2-5.21,1.48-4.61,4.89.07.39-1.13.63-.56,1.29s1.2.2,1.81.06a8.08,8.08,0,0,1,1.63-.4c.59,0,1.22.28.7,1-2,2.92-3.13,6.34-4.89,9.35-2.36,4-6.44,7-7.44,12-.14.68-1.44,1.32-.67,2s1.58-.39,2.12-.91a110.3,110.3,0,0,1,12-9.94c2.14-1.59,4.79-3.93,6.84-3.46,3.5.8,6,0,8.8-1.6.72-.41,1-1.3,1.78-1.39,4.09-.49,7.42-2.83,11-4.53A56.32,56.32,0,0,0,100,179c-5.48-2.57-11-3.45-16.64-4.34-4.86-.77-9.81-.07-14.69-1.82-3-1.07-6.45-2.19-9.92-1.3-.15,0-.37-.17-.56-.26,1.37-2.71,1.29-3.2-.62-3.81a5.05,5.05,0,0,1,2.5-2.9c6.68-3.92,13.49-7.6,20.91-10a5.64,5.64,0,0,1,1.14,0C75,158.06,68.55,162.14,61,165.19a4,4,0,0,0,3.17.22c9.44-1.54,18.89-2.22,28.31.1a9.94,9.94,0,0,1,3.61,1.21c4.35,3.35,8.48,1.64,12.55-.38s7.79-4.11,10.35-7.91c.24-.36.51-.66,1-.53s.4.63.35,1c-.25,2.21.16,4.53-.72,6.64-.67,1.62-.18,2.54,1.69,3.2-3,.88-3.91,3.08-4.14,5.44-.07.79-3,1.62-.19,2.53a4.7,4.7,0,0,1-.71.82c-1.85,1.39-3.75,2.73-5.57,4.15-.52.41-2.34.58-.53,1.83.36.25-.35.74-.68,1-2,1.75-3.92,3.54-6,5.21-2.25,1.85-4.12,4.05-6.17,6.09a1.41,1.41,0,0,0-.24,1.56c.32.7.94.22,1.44,0,.85-.31,1.51-1.23,2.68-.86-.8,1.72-3.61,1.75-3.4,4.17,14.28-2.13,24.69-9.9,32.12-22.2a8.62,8.62,0,0,1-1.67,6.88c-4.56,6.42-10.06,11.62-17.74,14.34-6.31,2.23-12.67,4.45-18.46,7.94a25.92,25.92,0,0,0-7.51,6.23c-1.33.67-2.81,1.2-2.95,3L66.92,220a2.61,2.61,0,0,0-.24-.23c1.75-2.57,4.36-4.34,6.84-7.22-3.14.45-5.85.3-8.08,1.5-2.73,1.47-5.5,2.89-8.2,4.44a10,10,0,0,0-4.13,3.89,2.49,2.49,0,0,1-1.87,1.29Q30.41,228.3,9.59,233a7.31,7.31,0,0,1-.72-1.23A195.89,195.89,0,0,1,1,196.13c-.36-2.81-.13-5.69-1-8.45V161.76a1.17,1.17,0,0,0,.48-1,144.5,144.5,0,0,1,4.15-25.41,176.38,176.38,0,0,1,63.58-98.7,169.44,169.44,0,0,1,37.08-22C115.62,10.21,126.2,6.43,137.33,4.42ZM43.46,174.81l.46.61c-.06.73-1,1.74,0,2.13,1.19.48,1.45-.9,1.57-1.62.41-2.49,2.59-4.15,3.05-6.53,1.12-5.8,4.2-10.44,8.21-14.59A4.5,4.5,0,0,1,59.5,153a5.07,5.07,0,0,0,3.7-2.87c-3.6-.21-6.83,0-9.63,2.3a59.55,59.55,0,0,0-12.26,14.31c-3.49,5.43-6.47,11.23-11.37,15.64a4,4,0,0,0-1,2.15A104.46,104.46,0,0,1,23.14,201c-.24.55-.85,1.16,0,2.11.64-1.09,1.22-2,1.74-3a130.81,130.81,0,0,1,7.92-12.83C35.93,182.79,39.1,178.28,43.46,174.81ZM75.61,199.2c1.79-1.33,4.56-1.32,6.56-3,.65-.56.69-1-.31-1.28-1.61-.5-6.58,1.54-7.29,3.13C74.31,198.62,74.12,199.31,75.61,199.2Z"/><path class="cls-5" d="M352.32,183.84"/><path class="cls-6" d="M194.61,210.4c-1.29,1.52-.2,2.5-.15,3.53.16,3.11.34,6.22.72,9.31.2,1.57-.88,1.41-1.7,1.7-1,.34-1.77.36-2.23-.93-.94-2.63-2.05-5.19-3.1-7.78-.22-.57-.34-1.47-1.18-1.08-.52.23-.13.95,0,1.5.69,2.62,1.21,5.28,1.94,7.89.44,1.54-.57,1.45-1.48,1.74-1.06.35-1.52.24-1.78-1-1.48-6.86-3.06-13.7-4.63-20.54-.26-1.13-.07-1.65,1.21-2,3.59-.87,3.54-.95,4.88,2.52A96.8,96.8,0,0,0,192,216.37c-.34-4.61-.6-9.23-1-13.83-.28-3,2.22-1.75,3.44-2.39,1.51-.8,1.65.46,1.88,1.49,1.46,6.55,2.9,13.1,4.4,19.64.28,1.21.47,2-1.18,2.39s-2-.33-2.29-1.74C196.46,218.2,195.55,214.51,194.61,210.4Z"/><path class="cls-4" d="M148.81,185.31c1.37.33.45,1.15.17,1.49a101.19,101.19,0,0,0-10.85,16.62,2.78,2.78,0,0,1-2.13,1.32q-17.4,3.94-34.79,7.88a8,8,0,0,1-1.7,0c.3-1.33,1.54-1,2.3-1.39a45.58,45.58,0,0,1,12.62-4.34c2.63-.41,4.78-2.1,7.16-3.13,4.76-2.07,7.53-6.17,11.06-9.5,1.34-1.26,2.46-3,4.75-2.84,1,.06,1.28-1.1,1.79-1.77,1.78-2.3,3.62-4.5,6.53-5.41,1-.3,2-.85,2.64.56l-2.74,3.05.51.48Z"/><path class="cls-6" d="M221.59,205.69c-.7-3.1-1.33-6.22-2.11-9.31-.35-1.37-.08-1.91,1.38-2.26s1.71.2,2,1.43c1.45,6.69,3,13.35,4.48,20,.14.67.84,1.69-.54,1.85-1.18.13-2.51,1.46-3.52-.46-2.15-4.08-4.39-8.11-6.59-12.16-.08-.47-.29-1-.8-.68s.31.66.31,1.06c.9,4.05,1.76,8.11,2.72,12.14.31,1.32.21,1.92-1.34,2.27s-1.76-.19-2-1.39c-1.47-6.78-2.95-13.56-4.53-20.32-.27-1.16,0-1.38,1.05-1.78,2.32-.87,3.72-.5,4.77,2,1.19,2.76,2.84,5.33,4.3,8,.17.33-.07.88.64,1.08Z"/><path class="cls-6" d="M167.71,215.93c-1.69,2.23,0,3.77,1.11,5.78,1.23,2.22,1.5,5,2.2,7.52.3,1.1-.72.85-1.14,1-1,.23-2.27,1-2.74-.7s-.89-3.56-1.31-5.35a2.78,2.78,0,0,0-1.38-2.12,2.38,2.38,0,0,0-2.07.09c-1,.43-.3,1.11-.2,1.64.42,2.11.84,4.23,1.41,6.3.51,1.8-.76,1.63-1.8,2-1.2.4-1.68.17-1.95-1.11q-2.22-10.29-4.59-20.54c-.26-1.11-.12-1.6,1.07-1.76,1-.13,2-.48,3-.7,5-1.1,6.7,0,7.82,5C167.36,213.82,167.5,214.77,167.71,215.93Zm-3.64.23c-.26-1.09-.52-2.51-1-3.87s-1.56-1.36-2.76-1.1c-1.59.34-.63,1.35-.53,2.06a24.85,24.85,0,0,0,.84,3.73c.21.68-.24,2,1.32,1.71A2.29,2.29,0,0,0,164.07,216.16Z"/><path class="cls-6" d="M143,215.52c0-3.07,1.5-4.85,4.62-5.4a4.88,4.88,0,0,1,6,3.49c.24.67.32,1.4.56,2.07.58,1.57-.48,1.62-1.54,1.93-1.26.37-1.79,0-1.9-1.25a6.15,6.15,0,0,0-.26-1.17c-.35-1.22-1-2-2.43-1.65s-1.47,1.36-1.23,2.48c.73,3.43,1.5,6.85,2.25,10.28.25,1.09.47,2.19.76,3.27s1,1.89,2.26,1.61a1.87,1.87,0,0,0,1.44-2.39c-.24-1.34-.59-2.65-.88-4-.11-.5-.24-.86-.9-.83-1.81.06-1.26-1.53-1.49-2.43-.28-1.11.91-.92,1.47-1.07,3.3-.94,3.33-.91,4.08,2.48a53.89,53.89,0,0,1,1.16,5.87c.32,3.06-1.24,5-4.23,5.73a5.07,5.07,0,0,1-6.22-3.15A158.68,158.68,0,0,1,143,215.52Z"/><path class="cls-6" d="M136.18,235.42c0,1.23.5,2.37-1.28,2.69-1.49.26-2,.12-2.13-1.58-.33-6.78-.79-13.55-1.28-20.32-.1-1.4.12-2.14,1.69-2.47,3.51-.75,3.49-.85,4.85,2.55,2.33,5.86,4.67,11.72,7,17.59.24.63,1.33,1.67-.38,1.94-1.09.17-2.45,1.37-3.13-.7-.5-1.53-.82-3.19-3.29-2.33C136.67,233.32,135.45,233.64,136.18,235.42Zm-.5-15.15-.86.23c.29,2.89.56,5.78.88,8.66.14,1.25,1.08.72,1.64.51s2,.17,1.56-1.15C137.94,225.73,136.77,223,135.68,220.27Z"/><path class="cls-5" d="M208.31,99.35c2-3.15,5.33-4.39,8.36-6a14.41,14.41,0,0,1,8.94-1.79c2.8.35,3.68,1.56,2.5,4.26-.52,1.21-2.33,2.21-.62,3.86.29.27-.24.91-.67,1.12-2,1-2.13,2.55-1.77,4.58.28,1.57,1.67,3.35.37,4.78-1.55,1.72-4,1.85-6.18,2.14a12.54,12.54,0,0,1-1.4,0,3.76,3.76,0,0,1,.53-.56c.94-.53,2.89-.21,2.4-1.94-.35-1.24-2-1.32-3.23-1.31-1.61,0-3.16.11-4.46-1.25,4.14-2.08,5.79-6.44,9.07-9.22.55-.48,1.16-1.33.78-2.12s-1.29-.34-2-.37c-3.37-.13-6.41,1-9.38,2.43a10.58,10.58,0,0,1-3.27,1.42Z"/><path class="cls-6" d="M177.43,203.9c1.57-.25,1.25.92,1.47,1.55s.6,1.44-.52,1.72c-.31.08-.62.12-.94.19-4.87,1.12-5.07,1.54-3.26,6.44.66,1.79,1.83.48,2.77.53s2-1.14,2.65.39c.51,1.31.89,2.49-1.35,2.84-3.13.48-3.11.66-2.36,3.89a5.29,5.29,0,0,1,.21.94c.09,2.4,1.18,3.18,3.46,2.22.65-.28,1.41-.28,2.09-.5,1.42-.47,1.53.47,1.79,1.46s.18,1.65-1,1.88c-2.43.47-4.86,1-7.25,1.59-1.22.33-1.51-.16-1.73-1.16q-2.25-10.29-4.55-20.57c-.15-.68-.55-1.4.59-1.64C172.21,205.08,174.93,204.46,177.43,203.9Z"/><path class="cls-6" d="M204.53,222.45c-.74.27-.88-.31-1-1q-2.34-10.51-4.73-21c-.19-.85,0-1.36.91-1.55,2.5-.52,5-1,7.48-1.66,1.48-.37,1.47.59,1.75,1.54s.12,1.69-1.06,1.82a3.54,3.54,0,0,0-.47.07c-4.44,1-4.26,1-3.54,5.23.42,2.46,1.62,2.25,3.3,1.68,1.49-.51,2.55-.47,2.77,1.56.12,1.1-.2,1.43-1.15,1.58a5.69,5.69,0,0,0-2.31.54c-2.54,1.76.14,3.72-.06,5.61-.12,1.11.41,1.82,1.77,1.33.89-.31,1.85-.45,2.78-.68,1.23-.3,2.16-.5,2.53,1.32s-.64,1.78-1.76,2C209.37,221.34,207.05,221.89,204.53,222.45Z"/><path class="cls-6" d="M234.81,191.05c1.36-.22.87,1.13,1.17,1.78s.5,1.54-.68,1.57c-3.11.07-2.65,1.86-2.13,4,1.2,4.88,2.2,9.82,3.36,14.72.34,1.45.33,2.19-1.5,2.61s-1.95-.43-2.22-1.68c-1.19-5.46-2.46-10.89-3.62-16.36-.27-1.31-.56-2-2.1-1.41-1.23.48-2.28.69-2.64-1.32s1-1.75,2-2C229.21,192.29,231.94,191.69,234.81,191.05Z"/><path class="cls-6" d="M171.57,204c.53-2.67,1.26-4.88,4.81-4.41C174.76,201.09,174.92,204.12,171.57,204Z"/><path class="cls-7" d="M81.62,217c.14-1.83,1.62-2.36,2.95-3,1.16.18,1.74.77.57,1.56S83.11,217.26,81.62,217Z"/><path class="cls-7" d="M110.41,146.82a6.44,6.44,0,0,1-3.36-2.71,11.6,11.6,0,0,1,4.1,2.35Z"/><path class="cls-7" d="M148.81,185.31l-2.68,3-.51-.48,2.74-3.05Z"/><path class="cls-4" d="M66.92,220c-.18,0-.49.15-.52.1-.16-.28.12-.28.28-.33A2.61,2.61,0,0,1,66.92,220Z"/><path class="cls-5" d="M208.32,99.36l-.08.22-.14-.17.21-.06Z"/><path class="cls-7" d="M97.79,278.61q1.41,6.28,2.81,12.56c.24,1.07.77,2.13-1,2.54s-2-.26-2.29-1.71c-1.37-6.56-2.9-13.09-4.36-19.63-.15-.71-.82-1.85.44-1.88s3-2,4.21.15c1.83,3.25,3.55,6.57,5.59,10.37,0-3.83-1.19-6.91-1.74-10.1-.12-.71-.75-1.5,0-2.2a1.89,1.89,0,0,1,3.16,1q2.22,9.93,4.41,19.87c.17.76,1,1.83-.55,2-1.16.15-2.49,1.39-3.47-.59-2-3.92-4.08-7.76-6.14-11.64-.17-.33-.37-.64-.56-1Z"/><path class="cls-7" d="M169,263.16c-2.24,2.54.25,4.19,1.21,6.33s1.34,4.73,2,7.11c.33,1.18-.69.86-1.15,1-.92.27-2.08,1-2.58-.58-.41-1.29-.66-2.63-1-3.94a21.15,21.15,0,0,0-.83-2.74c-.51-1.19-1.57-1.23-2.66-1-1.45.35-.69,1.35-.54,2.11.41,2,.77,4.09,1.36,6.08.43,1.44-.32,1.71-1.37,1.78-.84.05-1.88,1.09-2.28-.84-1.45-6.95-3.07-13.86-4.66-20.79-.23-1,0-1.47,1.05-1.67,1.56-.29,3.1-.75,4.68-1,2.87-.47,4.67.54,5.62,3.25A47.83,47.83,0,0,1,169,263.16Zm-3.84-.13a12.12,12.12,0,0,0-1-3.67c-.62-1.21-1.61-1-2.67-.72-1.36.34-.63,1.23-.53,1.88a19.16,19.16,0,0,0,.87,3.7c.25.68-.37,2.18,1.38,1.87C164.62,265.84,165.44,265.23,165.19,263Z"/><path class="cls-7" d="M125.35,263.34a4.3,4.3,0,0,1,4.43,3.12c.88,2.62,2,5.32.23,8-.18.29-.4.58,0,.79,3.5,2,2.81,5.8,4,8.8.73,1.81-.16,1.81-1.44,2.21-1.44.46-1.93-.18-2.21-1.3-.44-1.7-.78-3.43-1.2-5.13a2.31,2.31,0,0,0-3.58-1.79c-.75.4-.21,1.15-.1,1.72.43,2.11.82,4.25,1.44,6.31.47,1.55-.58,1.57-1.45,1.76s-1.88.75-2.25-1c-1.43-6.87-3-13.69-4.59-20.54-.15-.69-.41-1.48.66-1.71Zm1.92,8.26a12.66,12.66,0,0,0-1-3.72c-.61-1.21-1.61-1.07-2.68-.76-1.27.38-.64,1.25-.51,1.94a36.14,36.14,0,0,0,.84,3.74c.23.78-.09,2.12,1.55,1.77C126.74,274.3,127.47,273.67,127.27,271.6Z"/><path class="cls-7" d="M124.65,318.12c0,2.88-.88,4.54-2.92,5.25s-4,1.07-6,1.58c-.89.23-1.29-.13-1.49-1-1.53-7-3.11-14-4.69-21-.16-.73-.13-1.29.73-1.42,2.21-.31,4.3-1.2,6.58-1.15a4.15,4.15,0,0,1,4.21,2.9C122.84,308.35,123.58,313.65,124.65,318.12Zm-3.71.29c-1-4.3-1.92-8.89-3.07-13.43-.39-1.53-1.78-1.26-3-1-1.6.32-.88,1.36-.69,2.2,1,4.36,1.9,8.71,2.93,13,.16.68-.24,2,1.3,1.69C119.63,320.62,121.05,320.52,120.94,318.41Z"/><path class="cls-7" d="M255.32,234.23c3.11-.13,4.82.86,5.52,3.13a101.37,101.37,0,0,1,3.35,14.91,4.39,4.39,0,0,1-3.06,5.06,8.68,8.68,0,0,1-1.11.41c-5.78,1.59-5.77,1.58-7-4.21-1.2-5.44-2.39-10.88-3.67-16.3-.27-1.17-.16-1.78,1.14-2C252.33,234.91,254.19,234.47,255.32,234.23Zm.47,3.34c-1.48.18-2.63.26-2.06,2.4,1.17,4.3,2,8.69,3,13,.18.77-.18,2.15,1.52,1.7,1.41-.36,2.71-.78,2.31-2.63-.93-4.28-1.9-8.54-2.88-12.8C257.45,238.27,256.9,237.54,255.79,237.57Z"/><path class="cls-7" d="M294.84,235c-1.72,2.28.26,4,1.36,6.21a30.49,30.49,0,0,1,2,7.33c.23,1-1,.77-1.5.92-.85.25-1.93.7-2.28-.76-.4-1.71-.81-3.41-1.25-5.11a3.77,3.77,0,0,0-1-2.13,2.29,2.29,0,0,0-2.47-.23c-1.15.42-.42,1.21-.31,1.79.41,2.11.84,4.23,1.41,6.3.45,1.65-.68,1.55-1.66,1.86s-1.76.38-2.06-1q-2.24-10.4-4.6-20.77c-.24-1-.14-1.47,1-1.58a10.79,10.79,0,0,0,2.1-.46C291.32,225.75,294.06,226.65,294.84,235Zm-3.57-.09c-.18-.73-.47-2.14-.9-3.49s-1.59-1.29-2.76-1.06c-1.58.31-.67,1.34-.57,2a24.63,24.63,0,0,0,.85,3.71c.22.69-.26,2.06,1.25,1.78C290.38,237.72,291.46,237.21,291.27,235Z"/><path class="cls-7" d="M232.9,259.94a5.12,5.12,0,0,1-4.44,5.38c-2.72.58-5.18-.43-6-3a79.53,79.53,0,0,1-3.58-16.06c-.3-2.78,1.41-4.65,4.16-5.29,2.95-.68,5.1.31,6.33,2.92A129.8,129.8,0,0,1,232.9,259.94Zm-3.54,0c-1.09-4.79-2.17-9.67-3.34-14.54a1.65,1.65,0,0,0-2.28-1.14,1.76,1.76,0,0,0-1.33,2.21c.38,2,.87,4,1.33,6.05.6,2.64,1.22,5.27,1.83,7.9a1.81,1.81,0,0,0,2.05,1.58C228.71,261.9,229.25,261.13,229.36,260Z"/><path class="cls-7" d="M234.25,293.63c.09,3.74-1.52,5.73-4.47,6.31s-5.25-.51-6.12-3.29A85.86,85.86,0,0,1,220.2,281c-.34-2.9,1.39-4.88,4.2-5.5,3-.67,5.4.33,6.34,3.22,1,3.25,1.69,6.64,2.48,10C233.65,290.59,234,292.47,234.25,293.63Zm-3.57.84c-1.09-4.83-2.14-9.63-3.28-14.42a1.65,1.65,0,0,0-2.05-1.22,1.68,1.68,0,0,0-1.59,2c1,4.89,2.16,9.76,3.33,14.63a1.63,1.63,0,0,0,2.1,1.12A1.91,1.91,0,0,0,230.68,294.47Z"/><path class="cls-7" d="M144,314.26c0,3.41-1.56,5.26-4.47,5.87s-5.51-.39-6.29-3.28c-1.64-6.09-3-12.26-4.34-18.41-.42-1.85,1.33-1.07,2.09-1.47.92-.5,1.34-.21,1.58.89,1.17,5.46,2.47,10.89,3.66,16.34.33,1.52.69,3,2.67,2.56,2.17-.44,1.77-2.05,1.42-3.6-1.18-5.22-2.29-10.46-3.54-15.66-.36-1.46,0-2,1.42-2.25s1.74.23,2,1.51c1.13,5.38,2.4,10.74,3.6,16.11A11.6,11.6,0,0,1,144,314.26Z"/><path class="cls-7" d="M254.53,271.13c-.39-1.46.32-2.24,1.65-2.21s3.14-1.94,4.19.79c2.5,6.56,5.16,13.07,7.73,19.61.18.47,1,1.28-.1,1.49s-2.18,1.31-3.2,0a4.14,4.14,0,0,1-.36-.89c-.95-2.26-2.87-2.82-4.9-1.51-1,.63-.46,1.5-.37,2.16.24,1.76-.2,2.72-2.13,2.77-2.17.06-1.1-1.57-1.17-2.37C255.35,284.34,255,277.72,254.53,271.13ZM258,276c.23,2.68.49,5.36.65,8.05.09,1.44,1,1,1.65.73s2.16.21,1.62-1.32c-.92-2.63-2-5.21-3-7.81-.12-.31-.27-.61-.66-.56C257.64,275.2,257.83,275.69,258,276Z"/><path class="cls-7" d="M279.4,253.17c-2.48,1.38-4,1-4.64-1.76-.5-2.27-2-.74-3-.7s-2.24.22-1.9,1.95c.17.86.63,2-.06,2.69a3.41,3.41,0,0,1-2.46.66c-.91-.1-.57-1.12-.61-1.76-.46-6.76-.8-13.53-1.38-20.27-.16-1.9.7-2.35,2.18-2.55s3-1.3,3.9,1.28C273.89,239.58,276.71,246.34,279.4,253.17Zm-10.17-11.25c.07,1.51.12,3,.19,4.54,0,.45-.12,1.18.49,1.16a8,8,0,0,0,2.76-.62c.59-.25.08-.83-.08-1.24-1.08-2.73-2.18-5.45-3.27-8.18,0-.39,0-1-.39-.91-.51.09-.23.58-.06.91,0,.5.07,1,.1,1.51s0,.9,0,1.35l.15,1.08s-.11.1-.1.13S269.18,241.83,269.23,241.92Z"/><path class="cls-7" d="M233.25,277.92a4.93,4.93,0,0,1,4.42-5.32c3-.52,5.1.65,6.1,3.36.27.74.33,1.56.59,2.31.47,1.33-.25,1.63-1.34,1.87s-1.92.37-2-1.07a4.19,4.19,0,0,0-.1-.71c-.36-1.34-.67-2.86-2.57-2.41s-1.48,2-1.19,3.3c.84,3.81,1.66,7.63,2.56,11.43.33,1.4.39,3.43,2.59,2.94s1.49-2.21,1.14-3.72c-.55-2.38-.13-3,1.94-3,.43,0,.85-.07,1,.42.56,2.3,1.59,4.64.34,7a5.46,5.46,0,0,1-5.43,2.8,4.47,4.47,0,0,1-4.29-2.87C236.27,292.69,233.26,279.63,233.25,277.92Z"/><path class="cls-7" d="M182.1,250.23c2.52,0,4.21,1.24,5.06,3.92.19.62,1,1.62-.47,1.82-.93.14-2.16,1.3-2.73-.55a3.62,3.62,0,0,0-.5-1.07,1.74,1.74,0,0,0-2.11-.64,1.63,1.63,0,0,0-1.25,1.79,5.47,5.47,0,0,0,2.4,4.23c1.16.85,2.41,1.57,3.6,2.37a8.73,8.73,0,0,1,4.2,7.38c.07,3.19-2.27,5.47-5.63,5.46a5.64,5.64,0,0,1-5.45-5.59c0-1.32,1.08-.9,1.73-1.15s1.42-.58,1.68.53a13,13,0,0,0,.33,1.4,1.82,1.82,0,0,0,2.18,1.4,1.87,1.87,0,0,0,1.52-2.34,5.47,5.47,0,0,0-2.58-3.86c-1.46-1-3-1.9-4.35-3a8.06,8.06,0,0,1-3.23-6.16A5.28,5.28,0,0,1,182.1,250.23Z"/><path class="cls-7" d="M220.31,263.05c0,3.11-2.56,5.31-5.93,5.17a5.76,5.76,0,0,1-5.16-5.6c.09-1.42,1.29-.87,2-1.2s1.26-.32,1.43.62a8.32,8.32,0,0,0,.35,1.39,1.79,1.79,0,0,0,2.19,1.39c1.22-.28,1.57-1.18,1.42-2.39a5.34,5.34,0,0,0-2.56-3.84c-1.59-1.08-3.22-2.09-4.7-3.3a7.93,7.93,0,0,1-2.88-5.84c-.22-3.23,1.51-5.33,4.71-5.85a5.24,5.24,0,0,1,6.11,4.09c.2.69.5,1.5-.65,1.6-.88.08-2,1.18-2.58-.38s-1.24-2.64-2.93-1.76-1,2.48-.42,3.75c.9,2,2.88,2.92,4.64,4C218.41,256.76,220.3,259.33,220.31,263.05Z"/><path class="cls-7" d="M213.05,278.29a5.4,5.4,0,0,1,5.27,4.63c.13,1-.41,1.21-1,1.16s-1.87,1.24-2.34-.44-1.37-2.54-3-1.78-1,2.35-.5,3.56c.79,2,2.63,2.93,4.34,3.94,3,1.76,5.12,4.06,5.36,7.7a5.14,5.14,0,0,1-5.17,5.85,5.42,5.42,0,0,1-5.86-5.32c-.1-1.29.75-1.21,1.47-1.35s1.62-.67,1.92.59a11,11,0,0,0,.24,1.17c.39,1.09,1.1,1.8,2.35,1.5s1.5-1.26,1.35-2.42a5.12,5.12,0,0,0-2.43-3.66c-1.51-1-3.1-2-4.53-3.12a8.08,8.08,0,0,1-3.16-6.19C207.2,280.49,209.39,278.28,213.05,278.29Z"/><path class="cls-7" d="M157,267.21c0,2.85-1.1,4.34-4.3,5.16-1.42.36-1.81.83-1.39,2.24.53,1.75.74,3.59,1.29,5.34.48,1.5-.16,1.91-1.46,2.22s-2,0-2.28-1.42q-2.13-10-4.44-20c-.31-1.33-.12-2,1.28-2a2.85,2.85,0,0,0,.7-.12C154.09,256.2,156,258.62,157,267.21Zm-3.68-.41c-.31-1.27-.61-2.93-1.11-4.53-.4-1.26-1.45-1.24-2.58-1-1.36.26-1,1.11-.82,2,.34,1.48.63,3,1,4.44.19.76,0,1.9,1.45,1.63C152.51,269.07,153.41,268.63,153.31,266.8Z"/><path class="cls-7" d="M141.42,280.82c.88-.19,1.91-.34,2.9-.63,1.14-.34,2-.68,2.4,1.05s-.42,2-1.68,2.26c-2.11.43-4.23.86-6.31,1.41-1.13.29-1.68.23-2-1.13-1.47-6.87-3-13.71-4.61-20.55-.26-1.12,0-1.53,1.15-1.74,2.43-.45,4.84-1,7.22-1.66,1.32-.35,1.46.37,1.64,1.33s.65,1.94-1,2a3.5,3.5,0,0,0-.68.2c-4.22,1-4.09,1-3.37,5.13.36,2,1,2.45,3,1.88.83-.24,2.4-1.72,3,.7.35,1.5.05,2.09-1.48,2.42-3.1.67-3.09.74-2.39,3.89.17.78.31,1.57.52,2.34C140.05,281,140.07,281,141.42,280.82Z"/><path class="cls-7" d="M198.64,302.93a30.59,30.59,0,0,0,3.17-.7c1.3-.41,2.1-.58,2.52,1.24s-.55,1.82-1.67,2c-.31.06-.62.19-.93.23-2.35.33-5.16,2.18-6.8,1-1.42-1-1.32-4.2-1.82-6.45-1.12-4.9-2.16-9.81-3.31-14.7-.28-1.2-.32-1.88,1.2-2.13,2.36-.38,4.68-1,7-1.59,1.19-.31,1.61.15,1.72,1.24.08.87.82,2-.89,2.05a2.66,2.66,0,0,0-.47.11c-4.84,1.26-5.07,1.76-3.33,6.58.28.78.6,1,1.37.79s1.43-.24,2.09-.49c1.17-.44,1.84-.41,2.19,1.09s-.07,1.92-1.45,2.23c-3.18.71-3.16.79-2.43,4.09.17.78.38,1.56.51,2.34S197.88,303.2,198.64,302.93Z"/><path class="cls-7" d="M282.65,273.33c1.08-.26,1.79-.39,2.47-.6,1.39-.45,1.93,0,2.27,1.45.38,1.63-.52,1.65-1.6,1.89-3.15.68-3.14.72-2.4,3.92,0,.07,0,.15.06.23.82,3.58.83,3.61,4.49,2.71,1.58-.38,2.95-.75,3.1,1.66.06.84-.14,1.16-.85,1.34l-.47.11c-2.72.57-6,2.33-8,1.38s-1.53-4.88-2.17-7.49c-1.1-4.49-2-9-3.07-13.52-.4-1.62,0-2.21,1.65-2.45a54.13,54.13,0,0,0,6.54-1.45c1.53-.42,1.47.64,1.75,1.51.34,1,.14,1.72-1.06,1.84l-.24,0c-5,1.26-5.2,1.6-3.45,6.49C282,273.16,282.24,273.48,282.65,273.33Z"/><path class="cls-7" d="M302.49,234c1-.25,1.76-.37,2.44-.59,1.25-.4,1.82,0,2.13,1.31s0,1.77-1.38,2c-3.3.68-3.28.76-2.55,4a4.38,4.38,0,0,1,.2.94c.08,2.46,1.25,3.11,3.48,2.19.66-.27,1.41-.29,2.09-.5,1.42-.42,1.51.5,1.77,1.5s.14,1.62-1,1.84c-2.43.46-4.85,1-7.24,1.57-1,.24-1.37.16-1.6-.93q-2.26-10.38-4.67-20.74c-.25-1.11,0-1.6,1.13-1.82,2.34-.48,4.69-.95,7-1.57,1.57-.42,1.66.56,1.95,1.59s-.06,1.68-1.2,1.76l-.24,0c-4.84,1.15-5.19,1.88-3.34,6.57C301.73,233.94,302.11,234.1,302.49,234Z"/><path class="cls-7" d="M91.65,283.43c.41,1.51-.78,1.3-1.41,1.48-3.26.92-3.27.9-2.52,4.22,0,.08,0,.16,0,.24.72,3.26.71,3.14,4.07,2.6,1-.16,2.33-1.58,3.09.13.54,1.22,1,2.75-1.38,3a21,21,0,0,0-5.36,1.17c-2.13.77-2.81.07-3.23-2-1.29-6.32-2.77-12.61-4.21-18.9-.3-1.33-.33-2.19,1.44-2.43A47.85,47.85,0,0,0,89,271.37c1.31-.37,1.52.31,1.68,1.25s.66,2-1,2.07a10.05,10.05,0,0,0-1.39.34c-3.56.77-3.56.76-2.78,4.3.66,3,.72,3.2,3.76,2.31C91.38,281,91.51,282.15,91.65,283.43Z"/><path class="cls-7" d="M197.89,268.2c1.05-.25,2.15-.47,3.22-.78,1.29-.37,2-.17,2.32,1.35s-.28,1.77-1.51,2q-3.3.58-6.54,1.46c-1.19.32-1.68.1-2-1.18q-2.21-10.29-4.6-20.53c-.3-1.28.21-1.54,1.18-1.75,2.26-.48,4.53-.94,6.77-1.52,1.5-.4,1.84.22,2.17,1.57.38,1.5-.4,1.54-1.41,1.77-4.62,1.08-4.45,1.06-3.65,5.57.45,2.53,1.83,1.79,3.2,1.38s2.56-.54,2.79,1.52c.12,1.09-.12,1.45-1.11,1.59-.71.1-1.39.4-2.1.45-1.38.08-1.52.78-1.2,1.93.38,1.38.67,2.79.94,4.2C196.57,268.09,196.93,268.54,197.89,268.2Z"/><path class="cls-7" d="M187.23,284.36c1.37-.28.94.95,1.19,1.53s.68,1.7-.67,1.74c-3.06.1-2.65,1.83-2.13,3.94,1.22,4.95,2.19,10,3.42,14.92.44,1.73-.25,2.11-1.69,2.51-1.77.49-1.8-.65-2-1.73-1.18-5.36-2.4-10.71-3.53-16.09-.31-1.46-.81-2.32-2.44-1.64-1.24.51-1.94.44-2.31-1.18s.38-1.87,1.57-2.12C181.48,285.64,184.36,285,187.23,284.36Z"/><path class="cls-7" d="M117.37,266.92c.35,1.95-.72,1.81-1.41,1.87-1.9.17-2.18,1-1.74,2.8,1.33,5.34,2.4,10.75,3.71,16.1.37,1.53-.15,1.93-1.47,2.23s-1.95,0-2.26-1.44c-1.15-5.54-2.51-11-3.66-16.58-.3-1.43-.67-2-2.15-1.38-1.2.46-2.11.56-2.53-1.28s.63-1.73,1.71-2c2.41-.53,4.86-1,7.21-1.7C116.79,265,117.3,265.91,117.37,266.92Z"/><path class="cls-7" d="M153.64,315.59c.05,1.52-1.38,1-2.19,1.35-1.34.6-1.44-.41-1.63-1.26-1.21-5.43-2.46-10.86-3.58-16.31-.34-1.65-.74-2.66-2.7-1.81-1.43.63-1.81-.19-2.14-1.52-.39-1.51.46-1.56,1.42-1.78,2.72-.6,5.45-1.14,8.14-1.86,1.53-.41,1.59.49,1.93,1.53.42,1.31,0,1.76-1.25,1.81-2,.09-2.33,1-1.86,2.92,1.3,5.18,2.39,10.41,3.56,15.62Z"/><path class="cls-7" d="M174.94,310.52c.35,1.15-.35,1.28-1,1.42-2.26.51-4.54.93-6.77,1.53-1.22.32-1.68,0-1.93-1.21-1.48-6.86-3-13.73-4.58-20.56-.36-1.52.46-1.6,1.42-1.74s1.91-.82,2.27,1c1.12,5.56,2.49,11.08,3.64,16.64.35,1.66.84,2.47,2.63,1.64.56-.26,1.26-.23,1.85-.45C174.44,308,174.87,309.18,174.94,310.52Z"/><path class="cls-7" d="M231.34,240.22c-.06-1.25,1.28-.83,2-1.12,1-.39,1.56,0,1.81,1.14,1.06,5,2.22,10,3.32,15,.83,3.73.86,3.9,4.65,2.81,2.17-.63,2.43.41,2.65,2,.1.73-.21,1-.87,1.13q-3.74.8-7.46,1.66c-.65.16-1.08.17-1.25-.59C234.61,255,233,247.73,231.34,240.22Z"/><path class="cls-7" d="M267.57,266.38c1.29-.21,1.13.82,1.3,1.54,1.25,5.53,2.55,11.05,3.7,16.6.31,1.5.89,1.86,2.25,1.4.76-.25,1.58-.3,2.32-.56,1.21-.44,1.85-.28,2.19,1.15s-.08,1.94-1.5,2.18c-2.5.41-5.51,2.13-7.31,1.25s-1.48-4.56-2.08-7c-1.14-4.57-2.06-9.19-3.06-13.78C264.91,267.05,265.46,266.36,267.57,266.38Z"/><path class="cls-7" d="M180.4,309.92c.09,1.16-1.3.71-2,1s-1.48.5-1.76-.79c-1.52-7-3.12-14-4.72-21-.27-1.2.25-1.67,1.33-1.64.79,0,1.91-1.21,2.29.5C177.12,295.18,178.71,302.35,180.4,309.92Z"/><path class="cls-7" d="M162.59,313.89c0,1.14-1.29.74-2.07,1-1,.35-1.49.22-1.75-1-1.17-5.61-2.48-11.19-3.74-16.78-.23-1-.38-2-.68-3-.41-1.35-.61-2.31,1.31-2.74s2,.56,2.33,1.93c1.35,6.23,2.78,12.45,4.18,18.68C162.29,312.47,162.4,313,162.59,313.89Z"/><path class="cls-7" d="M251.12,259c0,1.27-1.24.89-2,1.2-1.1.44-1.57,0-1.8-1.09-1-4.52-2-9-3-13.54-.53-2.41-.94-4.86-1.63-7.23-.42-1.43.45-1.53,1.28-1.57s2-1.18,2.38.73c1.48,6.95,3.08,13.87,4.64,20.8C251,258.43,251.05,258.59,251.12,259Z"/><path class="cls-7" d="M172.38,252.76c1.08-.36,1.21.28,1.35.94,1.57,7,3.11,14,4.74,21,.33,1.41-.62,1.45-1.42,1.6s-1.92.87-2.27-.71c-1.58-7.07-3.22-14.13-4.71-21.22C169.62,252.29,171.79,253.41,172.38,252.76Z"/><path class="cls-7" d="M247.55,270.84c1.18-.29,1.4.21,1.56.93q2.32,10.53,4.72,21.05c.38,1.66-.91,1.32-1.71,1.58s-1.67.72-2-.71c-1.55-7.09-3.2-14.16-4.73-21.26C244.91,270.15,247.38,271.82,247.55,270.84Z"/><path class="cls-7" d="M278.3,229.1c1.55-.48,1.65.32,1.81,1,1.53,6.86,3,13.73,4.62,20.57.4,1.67-.55,1.58-1.58,1.87s-1.8.4-2.12-1.1q-2.14-10.18-4.56-20.3C275.9,228.8,277.76,229.41,278.3,229.1Z"/><path class="cls-7" d="M125,303.89c0-.9.33-1.57-.91-1.93s-1.12-2-1-2.9,1.6-.78,2.47-.89c1.41-.18.91,1.18,1.21,1.87.55,1.27-.06,2.5-.17,3.75-.07.83-.2,1.82-1.22,1.7C124.24,305.34,125.58,304.23,125,303.89Z"/><path class="cls-7" d="M192.64,281.9c.69-4,.83-4.12,4.46-4.45C195.72,279.24,195.65,281.91,192.64,281.9Z"/><path class="cls-1" d="M57.6,167.51c1.91.61,2,1.1.62,3.81.19.09.41.3.56.26,3.47-.89,7,.23,9.92,1.3,4.88,1.75,9.83,1.05,14.69,1.82,5.6.89,11.16,1.77,16.64,4.34a56.32,56.32,0,0,1-12.76,8.12c-3.57,1.7-6.9,4-11,4.53-.81.09-1.06,1-1.78,1.39-2.8,1.58-5.3,2.4-8.8,1.6-2.05-.47-4.7,1.87-6.84,3.46a110.3,110.3,0,0,0-12,9.94c-.54.52-1.27,1.67-2.12.91s.53-1.32.67-2c1-4.94,5.08-7.92,7.44-12,1.76-3,2.85-6.43,4.89-9.35.52-.74-.11-1-.7-1a8.08,8.08,0,0,0-1.63.4c-.61.14-1.33.48-1.81-.06s.63-.9.56-1.29c-.6-3.41,3-2.9,4.61-4.89-1.8.41-3.15.75-4.51,1-2.37.46-2.75,0-2.26-2.3a20.93,20.93,0,0,1,5.61-10.07Z"/><path class="cls-7" d="M43.46,174.81c-4.36,3.47-7.53,8-10.7,12.45a130.81,130.81,0,0,0-7.92,12.83c-.52.95-1.1,1.88-1.74,3-.81-.95-.2-1.56,0-2.11A104.46,104.46,0,0,0,29,184.5a4,4,0,0,1,1-2.15c4.9-4.41,7.88-10.21,11.37-15.64A59.55,59.55,0,0,1,53.57,152.4c2.8-2.28,6-2.51,9.63-2.3A5.07,5.07,0,0,1,59.5,153a4.5,4.5,0,0,0-2.76,1.84c-4,4.15-7.09,8.79-8.21,14.59-.46,2.38-2.64,4-3.05,6.53-.12.72-.38,2.1-1.57,1.62-.94-.39,0-1.4,0-2.13C44.38,174.75,44,174.71,43.46,174.81Z"/><path class="cls-7" d="M75.61,199.2c-1.49.11-1.3-.58-1-1.19.71-1.59,5.68-3.63,7.29-3.13,1,.31,1,.72.31,1.28C80.17,197.88,77.4,197.87,75.61,199.2Z"/><path class="cls-1" d="M221.59,205.69l.17,1.45c-.71-.2-.47-.75-.64-1.08Z"/><path class="cls-1" d="M216.17,205.19c0-.4-.73-.77-.31-1.06s.72.21.8.68Z"/><path class="cls-7" d="M164.07,216.16a2.29,2.29,0,0,1-2.1,2.53c-1.56.33-1.11-1-1.32-1.71a24.85,24.85,0,0,1-.84-3.73c-.1-.71-1.06-1.72.53-2.06,1.2-.26,2.32-.27,2.76,1.1S163.81,215.07,164.07,216.16Z"/><path class="cls-7" d="M135.68,220.27c1.09,2.74,2.26,5.46,3.22,8.25.45,1.32-1,.92-1.56,1.15s-1.5.74-1.64-.51c-.32-2.88-.59-5.77-.88-8.66Z"/><path class="cls-2" d="M165.19,263c.25,2.2-.57,2.81-1.95,3.06-1.75.31-1.13-1.19-1.38-1.87a19.16,19.16,0,0,1-.87-3.7c-.1-.65-.83-1.54.53-1.88,1.06-.26,2-.49,2.67.72A12.12,12.12,0,0,1,165.19,263Z"/><path class="cls-2" d="M127.27,271.6c.2,2.07-.53,2.7-1.81,3-1.64.35-1.32-1-1.55-1.77a36.14,36.14,0,0,1-.84-3.74c-.13-.69-.76-1.56.51-1.94,1.07-.31,2.07-.45,2.68.76A12.66,12.66,0,0,1,127.27,271.6Z"/><path class="cls-2" d="M120.94,318.41c.11,2.11-1.31,2.21-2.54,2.49-1.54.35-1.14-1-1.3-1.69-1-4.34-2-8.69-2.93-13-.19-.84-.91-1.88.69-2.2,1.23-.24,2.62-.51,3,1C119,309.52,120,314.11,120.94,318.41Z"/><path class="cls-2" d="M255.79,237.57c1.11,0,1.66.7,1.89,1.71,1,4.26,1.95,8.52,2.88,12.8.4,1.85-.9,2.27-2.31,2.63-1.7.45-1.34-.93-1.52-1.7-1-4.35-1.83-8.74-3-13C253.16,237.83,254.31,237.75,255.79,237.57Z"/><path class="cls-2" d="M291.27,235c.19,2.26-.89,2.77-2.13,3-1.51.28-1-1.09-1.25-1.78a24.63,24.63,0,0,1-.85-3.71c-.1-.71-1-1.74.57-2,1.17-.23,2.3-.36,2.76,1.06S291.09,234.22,291.27,235Z"/><path class="cls-2" d="M229.36,260c-.11,1.18-.65,1.95-1.74,2.06a1.81,1.81,0,0,1-2.05-1.58c-.61-2.63-1.23-5.26-1.83-7.9-.46-2-1-4-1.33-6.05a1.76,1.76,0,0,1,1.33-2.21,1.65,1.65,0,0,1,2.28,1.14C227.19,250.28,228.27,255.16,229.36,260Z"/><path class="cls-2" d="M230.68,294.47a1.91,1.91,0,0,1-1.49,2.12,1.63,1.63,0,0,1-2.1-1.12c-1.17-4.87-2.3-9.74-3.33-14.63a1.68,1.68,0,0,1,1.59-2,1.65,1.65,0,0,1,2.05,1.22C228.54,284.84,229.59,289.64,230.68,294.47Z"/><path class="cls-2" d="M258,276c-.15-.34-.34-.83.25-.91.39-.05.54.25.66.56,1,2.6,2.09,5.18,3,7.81.54,1.53-1,1.06-1.62,1.32s-1.56.71-1.65-.73C258.47,281.39,258.21,278.71,258,276Z"/><path class="cls-2" d="M269.17,241.52l-.15-1.08a.92.92,0,0,0,0-1.35c0-.5-.07-1-.1-1.51l.23,0,.22,0c1.09,2.73,2.19,5.45,3.27,8.18.16.41.67,1,.08,1.24a8,8,0,0,1-2.76.62c-.61,0-.46-.71-.49-1.16-.07-1.51-.12-3-.19-4.54A.33.33,0,0,0,269.17,241.52Z"/><path class="cls-4" d="M269.32,237.58l-.22,0-.23,0c-.17-.33-.45-.82.06-.91C269.28,236.6,269.34,237.19,269.32,237.58Z"/><path class="cls-4" d="M269,239.09a.92.92,0,0,1,0,1.35C269,240,269,239.54,269,239.09Z"/><path class="cls-4" d="M269.17,241.52a.33.33,0,0,1,.06.4c-.05-.09-.12-.18-.16-.27S269.14,241.57,269.17,241.52Z"/><path class="cls-2" d="M153.31,266.8c.1,1.83-.8,2.27-2.05,2.49-1.46.27-1.26-.87-1.45-1.63-.38-1.47-.67-3-1-4.44-.2-.86-.54-1.71.82-2,1.13-.22,2.18-.24,2.58,1C152.7,263.87,153,265.53,153.31,266.8Z"/><path class="cls-4" d="M43.46,174.81c.55-.1.92-.06.46.61C43.76,175.22,43.61,175,43.46,174.81Z"/></svg>