<svg xmlns="http://www.w3.org/2000/svg" width="140.05" height="349.496" viewBox="0 0 140.05 349.496">
  <defs>
    <style>
      .cls-1 {
        stroke: #120a04;
      }

      .cls-1, .cls-10, .cls-11, .cls-2, .cls-3, .cls-4, .cls-6, .cls-8, .cls-9 {
        fill-rule: evenodd;
      }

      .cls-2 {
        fill: rgba(0,0,0,0.18);
      }

      .cls-3, .cls-6 {
        fill: #e6e6e6;
      }

      .cls-11, .cls-3, .cls-5 {
        stroke: #333;
      }

      .cls-4 {
        fill: #070808;
      }

      .cls-12, .cls-5, .cls-7 {
        fill: none;
      }

      .cls-6, .cls-7, .cls-8, .cls-9 {
        stroke: #000;
      }

      .cls-9 {
        fill: #4e3a3a;
      }

      .cls-10 {
        fill: #e9d2af;
      }

      .cls-10, .cls-12 {
        stroke: #3f2d10;
      }

      .cls-11, .cls-13 {
        fill: #fff;
      }

      .cls-13 {
        font-size: 14px;
        font-family: HelveticaNeue-Bold, Helvetica Neue;
        font-weight: 700;
      }
    </style>
  </defs>
  <g id="jack" transform="translate(-42.42 -4.673)">
    <path id="path2866" class="cls-1" d="M69.6,32.8c-4.4,1.235,7.569,14.779,9.183,17.611C81.284,54.8,91.774,59.339,96,62.58c3.588,2.751,13.893-3.706,16.468-5.676,4.331-3.319,10.757-2.251,13.633-.634,8.966,5.04,1.91-4.022-.949-7.172-2.242-2.471-9.9-4.5-13.317-5.827-5.815-2.257-7.956-6.134-13.161-9.059-4.971-2.795-9.637-1.551-14.894-.078C80.5,35.056,73.837,32.476,69.6,32.8Z" transform="matrix(0.53, 0.848, -0.848, 0.53, 129.578, 21.905)"/>
    <path id="path2812" class="cls-2" d="M82.443,115.35c-5.416,1.765-17.689-1.852-25.735-3.848-6.819-1.707-13.679,3.385-16.729,6.423-4.091,4.108-4.994,12.209-3.862,16.723,2.407,9.634,15.574,9,21.876,7.725,5.81-1.157,12.282,3.732,18.016,5.15,6.585,1.649,24.63-1.042,32.884-1.042,8.39,0,32.358,7.783,40.681,3.617,6.455-3.211,12.412-2.228,18.013-6.423,4.377-3.3,6.443-9.056,7.722-14.148,2.268-9.085-5.431-10.445-10.294-12.875-6.252-3.125-17.09-1.215-21.876,0-5.13,1.273-40.7-6.452-47.831-6.452-5.784,0-3.064,5.15-12.866,5.15Z" transform="translate(6.752 202.845)"/>
    <path id="path2818" class="cls-3" d="M88.913,112.772c6.814,4.745,17.524,8.014,23.993,14.929.923,2.72.521,5.7.538,8.564-.854,3.674-3.316,5.757-6.322,7.754-7.71,2-15.673-1.215-23.021-3.472-6.568-1.013-14.162-3.443-18.164-9.027-6.316-7.464-4.386-13.627-2.558-22.77C71.855,110.4,80.341,111.759,88.913,112.772Z" transform="translate(55.849 194.1)"/>
    <path id="path2820" class="cls-4" d="M80.341,88.31c6.3,7.884,5.676,10.986,13.96,23.684-1.5,7.363,1.29,14.42,1.808,21.711-1.49,6.365.4,16.462-3.978,20.976-7.609,5.729-19.283,5.468-23.507-1.823.723-2.893.174-4.629,1.447-7.58,3.721-7.927,1.959-16.983.723-25.327-.168-10.968-11.937-19.014-11.527-29.991,6.272-2.317,17.116-6.267,21.074-1.649Z" transform="translate(51.411 151.352)"/>
    <path id="path2824" class="cls-5" d="M110.094,130.173c-9.215.868-19.087.723-25.732-2.864-8.246-2.083-15.513-4.716-22.255-13.858" transform="translate(56.808 202.998)"/>
    <g id="g2845" transform="translate(53.701 238.085)">
      <g id="g2839">
        <g id="g2834">
          <path id="path2814" class="cls-6" d="M108.708,176.09c-9.189,1.823-16.749,3.53-24.552,9.2-1.736,2.083-1.655,4.108-1.533,6.654.686,2.228,1.478,4.369,2.046,6.654,7.962.752,16.76,5.5,25.075,2.835a41.806,41.806,0,0,0,24.795-8.217c1.678-4.947-.116-11.631-.521-17.128C125.969,178.636,116.815,178.2,108.708,176.09Z" transform="translate(-82.567 -104.555)"/>
          <path id="path2816" class="cls-7" d="M83.293,185.058c9.409-1.62,18.812,4.542,28.605,3.24,9.1-.289,13.815-6.915,20.484-7.349" transform="translate(-81.192 -95.354)"/>
          <path id="path2822" class="cls-8" d="M102.589,152.826c-.42,2.257-9.221,16.289-8.457,20.108,2.731,8.1-.472,14.64-2.494,22.856.046,8.072-2.523,21.554,3.255,27.485,8.231,3.269,16.509,5.352,23.5-1.794-3.6-11.168-1.331-21.815.376-33.446.087-10.994,8.361-18.922,7.956-29.974C120.451,155.748,106.546,148.226,102.589,152.826Z" transform="translate(-66.396 -151.365)"/>
        </g>
      </g>
    </g>
    <path id="path2794" class="cls-9" d="M122.917,171.65c-8.446-10.013-7.416-27.827-6.339-39.3.214-7.88-1.278-16.791,0-25.142.989-6.46,7.787-14.012,6.339-20.564-1.4-8.986,14.2-17.126,9.5-24.96-5.371-6.981-18.944-10.23-28.064-10.679-11.7,1.649-23.509.13-35.128,2.558C60.651,57.151,53.46,59.6,52.506,68.489c-.412,8.026,10.646,21.241,6.774,28.486-1.165,12.881-1.888,27.8,0,40.716,2.692,15.027,2.244,19.411-5.216,33.959,16.466-2.1,20.969,1.649,36.291,0,12.85-4.415,24.591,9.365,32.561,0Z" transform="translate(24.501 84.784)"/>
    <path id="path2792" class="cls-10" d="M54.807,67.447c1.9,14.058,27.164,15.438,38.624,5.144-1.811-7.78-2.294-16.729-8.969-22.133-6.217-2.213-12.831-1.878-19.324-1.519C59.352,51.621,54.85,62.285,54.807,67.447Z" transform="translate(42.987 80.371)"/>
    <path id="path2649" class="cls-10" d="M47.182,34.832c-4.077,13.89,1.831,30.246,5.471,43.85-5.274,16.937,4.892,34.566,23.663,43.2,18.586,6.044,23.548,10.865,44.41-14.7,14.215-31.743,4.859-13.9,12.341-41.4C135.541,30.159,122.9,6.01,89.409,8.6,66.257,7.84,56.322,19.779,47.182,34.832Z" transform="translate(24.941 10.134)"/>
    <path id="path2654" class="cls-1" d="M87.017,30.72c-3.532-.2-4.641,5.442-9.774,8.182-4.823,1.544-7.376-.713-13.3,2.176s-6.655,7.915-11.265,9.806-7.618-1.959-8.833-.539c1.527,6.377,14.617,5.205,26.38-1.337,10.248-5.7,21.029-18.991,16.791-18.287Z" transform="matrix(0.899, 0.438, -0.438, 0.899, 73.74, 29.131)"/>
    <path id="path2665" class="cls-1" d="M106.72,43.43c12.964-2.98,25.816,2.746,31.736,6.915,1.36,1.166.333,11.749.1,13.121-.246,1.444-5.387,19.856-4.305,20.3,12.953-7.861,15.305-42.4,1.49-61.31C125.552,8.5,107.585,2.929,92.121,8.165,47.647-1.025,32.133,54.379,54,92.566c2.552-8.639-4.725-25.993-1.513-35.4,2.673-2.381,3.376,2.326,6.831,1.956C47.693,35.6,68.592,44.514,84.167,42.066c4-3.541,9.913.106,22.553,1.364Z" transform="translate(21.876 -1)"/>
    <path id="path2696" class="cls-11" d="M65.682,26.445c-4.1,6.23-1.123,9.95,7.36,9.143,2.581.859,8.1-3.665,6.926-6.725,1.12-8.163-8.668-8.459-14.287-2.419Z" transform="translate(60.13 35.513)"/>
    <path id="path2698" class="cls-11" d="M63.145,22.138c-7.5,1.006-11.093,4.684-9.765,10.235C61.768,42.858,78.523,28.111,63.145,22.138Z" transform="translate(39.773 35.655)"/>
    <path id="path2700" class="cls-8" d="M71.965,27.317c1.519.058-1.765-5.925-5.63-1.519-3,3.414.127,8.046,2.32,8.434C73.064,35.007,73.857,27.928,71.965,27.317Z" transform="translate(62.472 33.987)"/>
    <path id="path2702" class="cls-8" d="M58.446,25.22c1.368-2.723-6.29-.648-4.435,5.711,1.279,4.392,6.116,1.785,6.484,1.557,4.913-3.061,1.114-11.13-2.048-7.268Z" transform="translate(40.928 33.744)"/>
    <path id="path2704" class="cls-10" d="M60.438,27.979c-1.756,2.592-6.772,8.8.972,8.676,7.225-.012,3.48-6.353,3.275-8.77" transform="translate(53.09 50.005)"/>
    <path id="path2706" class="cls-12" d="M58.222,41.741c2.772,1.23,10.693.729,15.548.257" transform="translate(49.453 67.238)"/>
    <path id="path2708" class="cls-10" d="M75.255,23.689C96.7,15.134,87.8,44.454,75.689,41.06" transform="translate(81.7 30.087)"/>
    <path id="path2710" class="cls-10" d="M76.561,24.994c6.154-4.58,8.509,4.638-.506,8.671" transform="translate(83.214 33.172)"/>
    <path id="path2743" class="cls-10" d="M55.8,25.221C33.391,19.666,46.2,47.5,57.737,42.488" transform="translate(21.54 34.567)"/>
    <path id="path2745" class="cls-10" d="M50.406,26.928c-6.721-3.7-7.8,5.755,1.681,8.523" transform="translate(24.74 37.591)"/>
    <path id="path2808" class="cls-10" d="M81.388,98.635c.934,9.435.836,20.348-1.688,28.932-1.854,3.272-4.536-1.467-5.909,3.255.549,4.085,2.851,5.13,5.065,6.148-1.585,5.373-4.629,9.892-1.477,15.913,2.043-1.8,3.451-5.839,4.01-9.4.231,4.158-1.817,12.412,2.743,9.041,2.213-2.844,1.134-7,1.266-11.211,1.769,4.687,2.3,11.735,4.643,3.617.235-3.64-.79-6.171-1.9-9.041-.289-3.669.478-7.514.844-11.211,2.689-7.794,3.452-16.474,4.221-25.316-3.064-6.9.052-16.587-2.532-23.507a46.832,46.832,0,0,0-2.532-8.318c-4.752-2.329-8.618.041-10.763,7.595C74.855,85.109,80.282,90.5,81.388,98.635Z" transform="translate(77.928 108.442)"/>
    <path id="path2796" class="cls-9" d="M70.95,81.243c.6,2.482,1.647,3.394,4.068,9.776a85.2,85.2,0,0,1,4.234,17.86c8.155-3.307,12.447-7.629,20.3-13.433-1.565-5.694-3.873-11.214-5.368-16.966-2.238-7.505-5.845-9.209-9.029-15.386a62.935,62.935,0,0,0-9.137-9.073" transform="translate(72.549 86.486)"/>
    <path id="path2810" class="cls-10" d="M47.769,98.883c-2.29,8.9-3.658,19.607-2.069,28.9,1.576,3.862,5.135.182,5.994,5.289-1.15,3.8-3.8,4-6.343,4.21,1,5.821,1.465,10.744-.541,16.092-1.982-2.485-2.969-6.938-3.095-10.627-.814,3.984.3,12.791-4.207,7.867.138-4.124-.291-7.25.135-11.417-2.561,3.955-4.092,10.659-5.543,1.883.235-3.643,1.693-5.755,3.288-8.168.81-3.486.494-7.519.594-11.266-1.877-8.581-1.535-17.342-1.176-26.265,4.265-5.665,2.18-16.245,5.93-22.093a35.338,35.338,0,0,1,3.878-7.236c5.488-.584,9.378,3.11,10.693,11.263,1.4,10.661-5.236,14.006-7.538,21.566Z" transform="translate(22.631 113.154)"/>
    <path id="path2798" class="cls-9" d="M66.23,79.114c-1.517,7.088.91,3.6-2.03,9.788-2.627,6.449-5.644,18.757-6.924,25.816-8.88-3.935-16.095-15.042-24.538-21.447,1.966-5.564,7.241-11.3,9.131-16.925,2.786-7.317,5.531-7.193,9.306-13.115,3.467-3.449,4.452-8.087,11.634-8.445" transform="translate(21.393 89.933)"/>
    <text id="Cliquez_sur_moi" data-name="Cliquez sur 
moi" class="cls-13" transform="translate(87.101 179.981)"><tspan x="0.622" y="14">Cliquez </tspan><tspan x="14.867" y="31">sur </tspan><tspan x="13.075" y="48">moi</tspan></text>
  </g>
</svg>
