<?xml version="1.0" encoding="utf-8"?>
<!-- Generator: Adobe Illustrator 23.0.1, SVG Export Plug-In . SVG Version: 6.00 Build 0)  -->
<svg version="1.1" id="Calque_1" xmlns="http://www.w3.org/2000/svg" xmlns:xlink="http://www.w3.org/1999/xlink" x="0px" y="0px"
	 viewBox="0 0 1154 983.2" style="enable-background:new 0 0 1154 983.2;" xml:space="preserve">
<style type="text/css">
	.st0{fill:#79C041;}
	.st1{fill:#211D1F;}
</style>
<g>
	<path class="st0" d="M380.6,412.8c-3.5-4.6-6.7-9.5-10.6-13.9c-13.3-15.1-30.1-25.7-47.5-35.5c-14.3-8-29-15.5-42.7-24.5
		c-16.5-10.9-31-24.2-39.7-42.4c-7.7-16.1-8.7-33.2-5.6-50.7c0.6-3.3,2.5-4.7,5.7-5.2c4.2-0.6,8.3-1.6,13.4-2.7
		c-9.8-8.2-18.7-15.8-28.1-23.6c7.6-8.9,13.8-17.5,21.3-24.6c12.3-11.6,28.1-14.6,44.3-15.2c9.3-0.4,18.6,0.8,28,0.7
		c10-0.1,20-0.6,29.9-1.2c1.7-0.1,3.3-1.2,6.1-2.3c-1.9-0.9-2.4-1.3-3-1.4c-12.4-2.9-24.8-5.8-37.2-8.8c-15.3-3.7-30.7-6.2-46.9-2.4
		c0.2-1.3,0-2.3,0.4-3c8.4-15.5,18.6-29.7,34.1-38.7c12.1-7,25.3-8.8,38.9-4.1c3.9,1.3,8.5,4.1,11.7,3c2.6-0.8,3.7-6.4,5.5-9.9
		c0.5-0.9,0.8-1.8,1.2-2.7c1.8-3.6,1.1-5.9-3.3-5.8c-10.6,0.2-21.3,0.1-31.9,0.9c-15,1-28.5,7.7-42.7,11.8
		c-13.2,3.8-26.6,5.7-40-0.2c-10.9-4.8-14.8-15.3-14-25.2c0.7-8.4,3.7-16.2,11.5-21.1c5.7-3.5,11.9-4.5,18.2-2.9
		c6.2,1.6,10.2,7,10.3,12.7c0.1,7-4.1,13.6-10,15.8c-4.6,1.7-8.6-1.2-8.3-6.3c0.9,0.2,2.1,0.1,2.7,0.6c4.4,3.2,7.5,0.8,9.4-2.7
		c3.9-7.2,2.8-15.2-7.7-16.2c-16.5-1.7-24.5,13.4-20.6,29.5c2,8.5,8,12.7,16.2,14.1c16,2.6,31-1.1,45.8-6.8
		c19.9-7.8,40.5-9.9,61.7-7.9c3.5,0.3,8.2,2.5,10.2-2.3c2.1-4.9-2.5-7.9-4.7-11.3c-0.7-1-3.7-1-5.6-0.7c-9.8,2-19.6,3.8-29.2,6.4
		c-12.8,3.5-24.1,1.4-33.6-7.9c-4.7-4.6-8.8-9.8-12.7-15.1c-0.9-1.3-0.9-4.5,0-5.8c8.2-11.3,18.4-16.3,32.7-13.4
		c12.1,2.4,22.5,8.4,32.5,15.4c0.9,0.7,1.9,1.3,3,1.8c0.4,0.2,1,0,2.4,0c-1.9-8.6-7.7-14.3-13.3-19.8c-5.6-5.5-12.2-10-19-15.5
		c6.6-0.8,12.6-2.2,18.6-2.1c25,0.5,47.4,7.9,65.5,25.9c9.3,9.3,18.6,18.7,31.2,23.5c5.6,2.1,11.6,3,18.5,4.7
		c-3.2,4-6.1,8.7-10,12.5c-7.1,6.8-6.5,6.8-2.7,13.1c7.2,11.8,12.5,24.4,13.5,38.6c1,15.5-3.2,29.3-12.1,41.6
		c-12.4,17.1-25,34-34.4,53c-4.9,9.9-9.8,19.8-15,30.2c-0.7-1-2-2.2-2.6-3.6c-7.5-16.1-14.9-32.3-22.3-48.4c-1.9-4.1-2.8-4.4-5.7-1
		c-5,5.8-9.7,11.8-14.8,17.4c-1.8,2.1-4.5,3.4-6.6,5.2c-1.8,1.5-3.5,3.3-6,5.7c5.4,2.1,9.9,3.7,14.2,5.5c21.2,8.5,39,21.6,53.5,39.3
		c16.1,19.7,26.9,41.8,31.7,66.8c0.3,1.3,1.7,2.4,2.7,3.7c0.8-1.1,2-2.1,2.5-3.4c2.4-6.5,4.6-13,8.2-19.6c0.5,2.1,1,4.2,1.4,6.3
		c3.7,19,11.3,36.2,25,50.1c6,6.1,12.7,11.6,19.6,16.7c16.5,12.1,30.1,26.6,36.9,46.3c6.8,19.9,6.3,40-1.9,59.5
		c-3.6,8.4-8.3,16.4-13.5,24c0-7.1,0.6-14.4-0.2-21.4c-1-8.6-5.2-15.9-12-21.7c-11.3-9.7-25.1-14.8-37.9-21.7
		c-9.3-5-18.4-10.7-26.6-17.3c-8.5-6.8-12.3-16.7-12.7-27.7c-0.1-1.9-0.4-3.8-1.3-6.4c-11.2,9.9-22,19.8-37.6,24.6
		c0-4.4,0.1-8,0-11.6c-0.3-9.7-1-10.3-10.3-10.9c-24.7-1.5-49.3-0.1-73.2,6.5c-16.1,4.4-30.8,11.5-40.7,26
		c-7.4,10.9-9.1,23.1-7.1,35.8c1.1,6.7,3.5,13.1,5.3,19.7c0.4,1.5,1,3.1,1.8,5.8c-4.6-2.1-8.1-3.6-11.6-5.3
		c-20-9.5-39.7-19.5-57.6-32.4c-15.7-11.3-30.5-23.6-39.8-41.1c-10.9-20.5-6-40.1,13.4-52.9c15.4-10.2,32.7-14.1,51-14.8
		c23.1-0.8,45.3,4,67.5,9.4c29.9,7.4,58.7,17.8,86.1,32.1c2.3,1.2,5,1.9,7.5,2.8C379.6,414,380.1,413.4,380.6,412.8z M405.3,411.9
		c0.3,0.1,0.6,0.2,0.9,0.2c0.7-1.7,1.6-3.5,2.2-5.3c3.8-11.7,4.4-23.4,1.8-35.5c-4.4-20.5-16-36.8-30.5-51.1
		c-20.3-20-44.4-34.4-69.7-46.9c-4.4-2.2-8.9-4.1-13.4-6.2c4.2,3.6,8.9,6.2,13.6,8.8c25.7,14.7,49.9,31.3,69.2,54.2
		c19.4,22.8,30.4,48.3,25.6,79C405,410.1,405.3,411,405.3,411.9z M218.5,467.8c-1.6-2.2-3.5-4.3-4.8-6.7c-4.1-7.6-8.8-15-11.6-23
		c-4.3-12.3,0-22.7,10.8-28.5c4.3-2.3,9.1-4.1,13.9-5.3c16.2-3.9,32.7-3.5,49.2-2.7c7.3,0.4,14.5,1,21.8,1.4
		c-18.5-3.5-37.1-5.5-55.8-4.6c-12,0.6-23.9,1.7-34.8,7.5c-9.4,5-13.7,12.1-12.1,22.4C197.4,444.6,207.7,456.4,218.5,467.8z
		 M391.3,226.8c0.5-13,0.7-26,1.6-38.9c1-12.8,2.5-25.5,4.2-38.2c1.7-12.7,3.9-25.2,5.9-37.8c-0.5-0.1-1-0.1-1.6-0.2
		C386.9,149,386.1,187.6,391.3,226.8z M347.2,33.3c5.1,4.7,10.3,9.4,15.4,14.1c8.3,7.7,16.3,15.7,25,22.9
		c10.1,8.4,21.7,13.4,35.1,13.8c0.9,0,1.9-0.4,3.9-0.8c-5.4-1.5-9.6-2.5-13.6-4C401,75,391,67.7,382.1,58.7
		C371.9,48.4,360.8,39.2,347.2,33.3z M525.6,494.1c1.5-10.9-1-21-5.9-30.7c-6.6-13-16.8-23-27.4-32.7
		c-12.7-11.5-25.7-22.7-34.8-37.6c-2.9-4.8-5.4-10-8.1-15c0.9,4.4,2.2,8.7,4.2,12.6c8.1,16.1,21,28,34.1,39.9
		c8.4,7.7,16.4,16.1,23.2,25.2C519.5,467,523.6,480.3,525.6,494.1z M246.8,218.8c32.8,7.7,62.4-1.3,90.8-17
		C308.5,213.8,278.1,218.5,246.8,218.8z M374.4,144.6c-20.2-13.7-57.7-15.3-77.2-2C324,134.3,349.3,136.8,374.4,144.6z M343.3,68.6
		c-16.4-7-33.4-11.1-51.4-9.1C309,62.5,326.2,65.6,343.3,68.6z"/>
	<path class="st0" d="M763.8,893.6c3,4.6,5.9,9,8.5,13.5c0.4,0.6-0.5,2.6-1.3,3.1c-7.4,4.5-14.6,9.2-22.3,12.9
		c-18.5,9-37,18.2-56,25.8c-16.6,6.7-33.7,12.4-51,16.7c-22.2,5.6-44.8,9.8-67.3,13.8c-10.4,1.8-21.2,2.2-31.8,2.6
		c-15.8,0.6-31.6,1.4-47.4,1c-25.9-0.8-51.8-2.9-77.2-8.7c-20.8-4.7-41.6-9.9-62.1-15.8c-28.3-8.2-55.1-20.4-81.2-34
		c-21.7-11.3-42.5-24.2-61.8-39.1c-17-13.2-33.3-27.4-49.3-41.7c-23.1-20.7-43.1-44.3-60.9-69.5c-12-16.9-22.5-34.8-33-52.7
		c-15.9-27.2-28.2-56.1-37.5-86.1c-5.9-19-11.3-38.3-14.7-57.8c-4.3-24.3-7-49-9.1-73.7C6.9,488.3,7.8,472.6,8,457
		c0-5.1,0.8-10.3,1.1-15.4c0.2-3.3,1.5-5,5.1-4.3c2.1,0.4,4.3,0.7,6.4,0.9c7.7,0.8,7.8,0.7,7.3,8.4c-1.8,27.8-1.7,55.6,1.2,83.3
		c3.1,29.1,7.9,58,16.8,86c4.5,14.1,8.9,28.2,14.2,42c9,23.5,19.8,46.1,33.1,67.4c9.6,15.3,19.2,30.6,29.8,45.2
		c16.9,23.3,36.2,44.6,57.3,64.1c20,18.5,41.3,35.4,64.2,50.2c18.4,12,37.1,23.3,57.3,31.9c18.9,8,37.7,16.7,57.1,23.3
		c26.1,8.9,53,15.1,80.4,19c28.6,4,57.3,5.9,86.1,5c32.1-1,64-4.7,95.3-12.2c24.6-5.9,49-12.6,72-22.9
		c22.9-10.2,44.9-22.2,67.3-33.4C761,895.1,762,894.6,763.8,893.6z"/>
	<path class="st0" d="M580.5,114.3c1.9-0.4,3.7-0.8,5.5-1.4c6.4-2.2,12.9-4.3,19.2-6.8c9.6-3.6,17.2-9.7,22.3-18.7
		c1.5-2.7,3.3-5.3,6-7.7c-0.3,2.3-0.5,4.6-0.9,6.9c-4.3,23.8-18.1,40.3-39.3,50.7c-10.1,5-20.7,9-31,13.7
		c-6.4,2.9-12.6,6.2-18.9,9.3c0.1,0.6,0.3,1.1,0.4,1.7c2-0.1,4-0.1,5.9-0.4c11.7-1.7,23.3-4,35-5c24.2-2,43.5-12.2,57.3-32.3
		c0.4-0.5,0.7-1.1,1.1-1.7c0.5,0.2,1,0.4,1.5,0.6c-1,4.7-1.7,9.4-2.9,14c-3.7,14.4-8.9,28.1-18.7,39.7c-5.4,6.4-12.7,9.5-20.3,11.9
		c-6.2,1.9-12.6,3.1-18.8,4.7c-2.3,0.6-4.5,1.6-6.9,3.4c17.6,1.4,33.8,6.2,48.6,15c-20.6,12-40.6,23.6-60.6,35.3
		c0.1,0.4,0.1,0.8,0.2,1.2c5.3,0.6,10.5,1.2,15.8,1.8c-13.8,10.4-21.6,27-37.9,33.7c-5.5,2.2-11.3,3.9-17.2,4.8
		c-4.1,0.6-4.9,2.3-4.8,5.8c0.2,13.2-4.8,24.5-13.9,33.6c-5.1,5-11.6,8.6-17.8,12.4c-3,1.8-4.8,3.6-5.2,7.2
		c-0.6,5.4-1.9,10.8-2.5,16.2c-0.8,6.4-1.1,12.9-1.7,20.4c-5.8-5-11.3-9.2-13.7-15.6c-2.6-7.3-4.9-14.9-5.7-22.6
		c-1-10-4.7-17.7-14.1-23.3c11.2-1.7,20.5,0.2,28.3,7.4c5.9,5.4,5.9,5.8,13,2c12.7-6.6,22.4-15.7,24-30.8
		c1.4-12.8-0.4-25.2-4.9-37.3c-3.9-10.6-8.3-21-8.9-32.5c-1-18.8,5.5-35.2,14.8-50.9c10.6-17.8,25.6-32,38.7-47.9
		c10.2-12.4,20.9-24.7,28.9-38.4c10.4-17.8,7.1-38.1-8.9-52.1c-4.5-4-11-6.5-17-7.7c-13.4-2.8-26.5-1.1-38.7,5.4
		c-2.9,1.6-3.4,3.4-0.9,5.2c5.8,4.1,8,10.4,10.9,16.3c1.4,2.8,2.7,5.6,4.3,9c-5.1,0-9.7,0-15.6,0c2.7,8.4,5.1,16.1,7.9,24.8
		c-7.4,1.4-13.8-2.4-20.4-5.2c-7.5-3.2-9.8-10.6-13-17.3c-0.6,0.1-1.3,0.1-1.9,0.2c-1,3.7-2.6,7.3-2.7,11.1
		c-0.2,6.8,0.5,13.6,1.1,20.4c0.2,1.8,1.2,4.1,2.6,5.1c6,4.5,8,10.7,8.9,17.7c0.8,6.2,5.2,9.6,11.4,8.9c5.4-0.6,12.8-6.9,14.1-12
		c0.9-3.7,0.1-6.8-4-7.8c-1.5-0.4-3.7-0.4-4.6,0.5c-0.8,0.8-0.5,3.1-0.1,4.5c0.9,2.8,2.5,5.7-1.4,7.1c-3.7,1.3-5.3-1.3-6.6-4.3
		c-2.2-4.9-1.8-9.3,1.9-13.4c3.5-3.8,7.7-4.3,12.3-3c5.8,1.6,9.8,5.2,10.8,11.2c2.4,14.2-14.9,29.2-28.7,25.1
		c-3.8-1.1-5.8-0.7-6.5,3.9c-0.9,6.6-2.6,13.2-4.2,21c-4.5-7.2-7.6-13.5-12-18.7c-9.6-11.3-9.3-23.1-3.7-35.8
		c1.1-2.6,1.6-5.9,1.1-8.6c-4.2-21.6,0.1-41.1,14.9-57.6c15.5-17.2,35-25.9,58.3-23.1c27.8,3.3,44.8,24.5,44,50.7
		c-0.3,8.6-5.1,17.2-8.4,25.7c-1.6,4.1-4.3,7.8-6.5,11.7C579.7,113.6,580.1,114,580.5,114.3z M619.5,158.4c-0.3-0.6-0.7-1.2-1-1.8
		c-3.3,1.5-6.5,3.5-10,4.5c-16.3,4.5-32.7,8.9-49.1,13.1c-10.7,2.7-21.3,5.6-30.4,12.1c-5.6,4-10.4,8.8-12.3,15.9
		c12.3-13.9,28.7-19.4,45.8-23.8c10.9-2.8,22-5.5,32.6-9.2C603.5,166.3,611.4,162,619.5,158.4z M535.6,254.5
		c-7.8-1.7-15.9-3.5-24.5-5.5c2.7,7.2,5.1,13.9,7.5,20.5C524.6,264.3,530.2,259.3,535.6,254.5z M597,215.8
		c-23.8,3.4-46.1,12.1-68.5,20.2C552.9,234.5,573.9,221.6,597,215.8z M611.9,111c-14.9,12.2-31.7,21.1-49.4,28.5
		C576.2,138.7,601.4,124.2,611.9,111z M462.2,329c9.9,10.6,7.5,24.8,11,37.3C472.8,352.9,474.9,338.8,462.2,329z M490.2,153.9
		c0.4-12.5-0.6-24.8-6.9-36C485.6,129.9,487.9,141.9,490.2,153.9z M531.9,276.2c7.5-6.2,15-12.4,23.4-19.2
		C544.8,261.2,537.8,268.1,531.9,276.2z M513.5,90.5c-2.9-3.5-6.1-6.9-8.5-10.7c-2.5-3.8-4.2-8.1-6.3-12.2
		C500,77.6,504.5,85.5,513.5,90.5z M519.4,65.8c-4.1-5.8-7.8-11-12.1-16.9C509.6,57.9,513.1,62.8,519.4,65.8z"/>
	<path class="st0" d="M652.1,17.7c1.7-5.9,3.3-11.5,5.1-17.7c5.9,1.8,11.3,3.3,16.5,5.2c11.3,4.3,22.8,8.3,33.8,13.3
		c16.9,7.7,33.8,15.5,50,24.6c15.5,8.7,30.4,18.4,44.8,28.8c16,11.6,31.4,24,46.3,36.8c10.8,9.3,21,19.5,30.5,30.1
		c13.1,14.7,25.8,29.9,37.6,45.6c14.7,19.5,28,40,38.6,62.1c9.3,19.3,18.6,38.6,26.5,58.5c6.1,15.2,10.8,31.1,14.9,47
		c4.8,19,8.6,38.2,11.9,57.5c2.3,14.1,3.4,28.4,4.3,42.6c0.8,13.4,1.1,27,0.9,40.4c-0.1,10-1.2,19.9-1.8,29.9
		c-0.1,2.4-0.9,3.6-3.7,3.2c-4.6-0.7-10.7,0.5-13.3-2.1c-2.3-2.2-1-8.5-1-12.9c-0.1-20.1,1-40.3-0.3-60.4
		c-1.4-20.8-4.6-41.6-7.8-62.3c-3.7-23.7-10.3-46.8-18.7-69.2c-7.3-19.6-15.5-38.9-25-57.5c-8.8-17.4-19.7-33.8-29.9-50.5
		c-14.4-23.4-32.4-44-51.1-64c-22.8-24.3-48.2-45.5-75.5-64.5C755.3,61.4,723,44.5,689,30.9c-10.9-4.4-22.2-7.6-33.4-11.4
		C654.6,19.2,653.6,18.5,652.1,17.7z"/>
	<path class="st0" d="M1141.9,784.1c1.6,5.7,3.1,10.2,4.1,14.8c5.4,23.4,8.9,47.1,7.9,71.2c-1,24.3-6.9,47.1-22,66.6
		c-17.7,22.7-41.9,33.9-70.1,37.7c-14.2,1.9-28.2,1.8-42-2.1c-1.7-0.5-3.3-1.3-4.5-1.8c7.4-6.1,14.9-11.8,21.8-18.2
		c10.8-10,18.3-22.5,21.9-36.7c3-11.8,5.6-24.1,5.6-36.2c0-11.1,4.1-17.1,12.9-23.2c22-15.1,42-32.6,56-55.8
		C1136.4,795.5,1138.7,790.3,1141.9,784.1z M1134.5,838.1c-18.5,54.3-56.1,92.6-102.7,123.5C1084.3,935.6,1117.2,893.3,1134.5,838.1
		z"/>
	<path class="st0" d="M150.6,240.4c-9.4-18.3-12.2-36.8-15.3-55.2c-0.6-0.2-1.2-0.4-1.8-0.6c-2.8,4.9-5.5,9.8-8.3,14.7
		c-0.4,0-0.8,0-1.2,0c-0.7-4.3-1.5-8.6-2.2-12.9c-3.2-17.8-0.4-35,4-52.2c3.7-14.7,12-27.2,18.8-40.5c0.8-1.6,0.8-3.7,1.1-5.5
		c-1.7,0-3.6-0.4-5.2,0c-12.7,3.2-21.7-3.6-30.1-11.5c-4.9-4.5-9-9.9-14.2-13.9c-5-4-10.9-6.8-16.3-10.1
		c7.6-8.1,29.8-15.1,42.4-10.4c16.4,6.1,21.8,20.5,25.4,36.2c3.9-4.2,4.9-17.4,1.7-25c-3.3-7.7-7.3-15.1-11.4-23.7
		c6.9,2.7,13.7,4.5,19.5,7.9c12.3,7.1,22.5,16.6,30.4,28.6c9.5,14.5,14.2,30.4,16.4,47.5c3.2,24.3-6.7,43.6-21.2,61.7
		c-13.9,17.5-24,37-30,58.5C152.5,235.8,151.7,237.4,150.6,240.4z M172.8,69.4c-0.6,0.2-1.1,0.3-1.7,0.5c0.1,0.8,0.1,1.6,0.2,2.4
		c4.5,21.3,2.6,42.1-4.4,62.5c-3.2,9.3-7.1,18.3-9.8,27.8c-2.6,9.3-4,18.9-5.9,28.4c0.4,0.1,0.8,0.2,1.2,0.2
		c6.7-20.4,13.6-40.7,20-61.1c4.1-13.1,6-26.7,4.4-40.5C176.1,82.8,174.2,76.1,172.8,69.4z M141.2,78c-8.6-14.1-21.7-21.2-37.4-24.2
		C117.9,59.3,130.2,67.7,141.2,78z"/>
	<path class="st0" d="M935.7,972.5c7.1-7.3,13.6-13.3,19.3-20.1c11.1-12.9,15.8-28.6,18.3-45.1c1.1-7.5,1.2-15.2,2.2-22.8
		c0.3-2.1,1.8-4.5,3.5-5.9c13.7-11,28.1-21.2,41.3-32.8c11.5-10.2,21.6-21.9,27.7-36.4c0.2-0.4,0.6-0.8,1.6-2.3
		c1.7,7.1,3.7,13,4.4,19c1.9,17.5,4.5,35,4.7,52.5c0.2,21.1-5.4,41.1-17.7,58.8c-10.4,15-24.6,24.5-41.6,30.9
		c-15.3,5.7-30.9,7.6-47,6.6C946.8,974.8,941.3,973.4,935.7,972.5z M1031.4,878.8c-19.4,36.6-47.4,64.9-82.8,86
		C989.4,948.8,1012.8,916.1,1031.4,878.8z"/>
	<path class="st0" d="M963.6,834.2c5.6,26.9,7.8,53.2,1.9,79.7c-4.9,22.2-15.8,41.1-35.8,52.8c-8.8,5.2-19.2,8.1-29.2,10.8
		c-14.9,3.9-29.9,3.3-44.7-1.1c-3.7-1.1-5-2.6-4.2-6.8c1.7-8.9,2.1-18.2,4-27c3.4-15.8,12.8-28,25.4-37.6
		c12.6-9.6,26.1-18.2,39.1-27.3c15.2-10.7,28.8-22.9,39.1-38.5c0.5-0.8,1-1.7,1.6-2.5C961.5,836,962.3,835.4,963.6,834.2z
		 M944.2,894.5c-9,15.5-18.9,30.3-31.6,43c-12.9,12.9-27.6,23.2-45.5,31.3C894,966.2,936.5,924.7,944.2,894.5z"/>
	<path class="st0" d="M204.7,507.2c-5.5,6.3-10,11.6-14.6,16.9c0.3,0.5,0.6,0.9,0.8,1.4c3.9-1,7.8-2,11.7-3.1
		c17.8-4.8,35.6-4.3,53,1.7c13.4,4.7,15.2,12.5,6.9,24.4c-16.1,23.1-39.2,29.2-65.5,27.2c-11.6-0.9-23-3.3-34.6-4.5
		c-5.6-0.6-11.2-0.1-17-0.1c5.2-13.6,15.5-24,26.9-35.1c-2.8-0.3-4-0.7-5.2-0.5c-13.7,2.7-27-0.7-40.4-2.9
		c-13.7-2.3-27.6-4.2-41.4-6.3c-1.1-0.2-2.2-0.3-4.6-0.6c14.4-16,30.5-27.5,50.6-32.3C157.3,487.1,180.4,496.8,204.7,507.2z
		 M169.4,557.6c24.1-6.2,47.3-12.2,70.4-18.2C215.3,540.1,192.3,546.3,169.4,557.6z M177.7,509.9c-21.3-1.6-42.2,0.9-62.8,6.9
		C135.9,514.4,156.8,512.1,177.7,509.9z"/>
	<path class="st0" d="M420.4,767c-5.9,9.6-11,18.1-16.2,26.6c-2.6,4.2-5.2,8.5-8.1,12.6c-2.1,3-2,5,0.7,7.7c8.6,8.5,17,17.3,25.4,26
		c0.7,0.7,1.3,1.4,3,3.3c-6.2,0-11.2-0.1-16.2,0c-6.1,0.2-8-5.3-11.6-8.4c-3-2.6-5.5-5.8-8.1-8.8c-2.7-3.1-4.9-3.6-8,0
		c-8.2,9.6-18.2,16.4-30.9,18.5c-22.4,3.7-47.4-7.6-51.9-31.5c-2.9-15.3,2.4-27.8,14-37.6c5-4.3,10.7-7.7,16.9-12
		c-1.3-1.5-2.6-3.1-4-4.5c-10-10-18-26.1-10.1-41.6c6-11.6,16.1-16.8,28.4-18.1c11.6-1.2,22.2,1.7,31,9.5c5.5,4.8,7.7,11.4,8.3,18.6
		c1.1,12.6-5.6,21.1-14.6,28.3c-3.6,2.9-7.6,5.4-11.7,7.6c-3.6,1.9-3.5,4.2-1.2,6.7c6.3,6.8,12.8,13.5,19.1,20.2
		c2.2,2.3,4.3,4.6,6.5,6.9c2.5,2.5,4,1.7,5.7-1.1c4.8-8.2,10.1-16,14.5-24.3c2-3.9,4.5-4.9,8.3-4.7C412.7,767.1,415.8,767,420.4,767
		z M341.5,832.8c3.4-0.6,6.9-0.9,10.2-2c9.2-2.9,16-9,22-16.4c2.1-2.5,0.8-4.1-0.9-6c-8.2-8.6-16.5-17.2-24.7-25.9
		c-10.5-11.1-7.9-10.6-20.4-2.6c-12,7.6-17.5,20.6-14.1,31.9C317.1,824,328.5,832.9,341.5,832.8z M368.1,729.4c-0.8-2.8-1-6-2.4-8.5
		c-5.4-9.4-18.1-12.1-28.6-6.4c-9,4.9-12.7,17-7.3,26.4c2.9,5,6.7,9.5,10.5,13.7c1,1.1,4.2,1.5,5.6,0.7c5.1-2.8,10-5.9,14.5-9.5
		C365.5,741.7,368.1,736.1,368.1,729.4z"/>
	<path class="st0" d="M217.6,333.2c-6.6-4.9-13.5-9.3-19.8-14.6c-12.6-10.6-23.6-22.6-31.2-37.5c-9.6-19-9.4-37.7,0.5-56.3
		c7-13.1,16.9-23.6,29.8-31.2c3.3-1.9,5.6-1.8,7.9,1.7c4.6,7.2,10.1,13.9,14.4,21.4c7.7,13.5,6.5,28,3.7,42.7
		c-2.8,14.2-5.8,28.3-7.2,42.6c-0.8,8.4,1.2,17.1,2,25.7c0.2,1.6,0.6,3.2,1,4.7C218.3,332.7,218,332.9,217.6,333.2z M199.4,298.6
		c-9.2-29.6-10-59.6-4.1-90C183.3,239.2,186.2,269.2,199.4,298.6z"/>
	<path class="st0" d="M432.6,564.5c-6,0.7-13.2,1.5-20.5,2.5c-3,0.4-4.5-0.4-4.3-3.6c1.5-18.3,6.4-35.1,19.7-48.7
		c12.5-12.6,27.6-19.2,45.1-20.6c4.6-0.4,9.2-1.1,13.8-1.6c8.2-0.8,13,4.2,16.8,10.3c10.2,16.2,6.5,35-6,48.7
		c-11.6,12.8-25.4,19.9-43.5,15.1C447.5,564.9,440.6,565.3,432.6,564.5z M438.3,547.3c18-2.3,51.7-21.2,52.8-40.7
		C476.3,524.3,457.7,536.2,438.3,547.3z"/>
	<path class="st0" d="M12.4,265.7c16.1-0.5,28.3-7.5,40.6-14.5c10.3-5.8,21.2-9.3,33.3-8.9c15.1,0.5,25.3,8.7,33.1,20.6
		c1.6,2.5,2.4,5.5,4.1,8c3,4.5,2.3,8.1-1.6,11.5c-7.6,6.7-14.4,14.3-22.6,20c-21.3,15-42.7,13.2-62.2-4.4
		c-4.9-4.4-9.1-9.6-13.1-14.8C19.9,277.9,16.7,272.2,12.4,265.7z M34.7,274.7c10.4,4.5,21.4,5.3,32.6,4.2
		c13.7-1.4,27.4-3.1,41.1-4.8c0.1,0,0.3-0.4,0.5-0.9c-11.1-1.9-22-1.7-32.9,0.1C62.3,275.5,48.7,277.8,34.7,274.7z"/>
	<path class="st1" d="M735.4,825.3c-4.5,0-8.5,0.2-12.4-0.1c-1.2-0.1-2.8-1.5-3.4-2.8c-1.8-3.7-2.9-7.8-5-11.4
		c-0.9-1.6-3.2-3.3-5-3.4c-8.3-0.4-16.6,0-25-0.2c-3-0.1-4.7,0.9-5.5,3.7c-0.5,1.7-1.7,3.3-2.1,5.1c-1.6,7.8-6.4,8.9-13.8,9.5
		c-13.2,1.2-21.7-2.8-26.6-15.3c-1.7-4.4-5.2-8.1-7.3-12.5c-2.1-4.4-5.1-5.7-10.4-4.1c0,7.4,0.1,15.2,0,23c-0.1,9.7,1.4,8.4-8.5,8.5
		c-1.3,0-2.6-0.2-4.3-0.3c0-25.4,0-50.6,0-76.5c12.8,0.3,25.6-1.6,38.1,2.4c8.9,2.8,12.9,9.7,13.4,18.5c0.5,8.4-3,15.2-10.5,19.6
		c-1.7,1-3.5,1.8-5.8,3c6,9.8,11.8,19.2,18.2,29.5c3.9-8.6,7.4-16.4,10.9-24.2c6.6-15,13.3-30.1,19.8-45.2c1.4-3.3,3.6-3.9,6.6-3.7
		c3.1,0.2,6.2-0.6,7.9,3.4c9.9,23.6,19.9,47.1,29.9,70.7C735,823.1,735,823.8,735.4,825.3z M628.7,780.5c1.8-0.3,4.9-0.6,8-1.2
		c4.9-0.8,7.1-3.8,7-8.7c-0.1-4.9-2.5-7.8-7.3-8.6c-2.8-0.4-5.6-0.9-8.4-0.9c-10.8,0-9-1-9.2,8.8c0,1.8,0.2,3.7,0,5.5
		c-0.4,3.9,1.1,5.6,5.1,5.1C625,780.4,626.2,780.5,628.7,780.5z M708.2,794.8c-3.5-8.8-6.9-17.1-10.2-25.4c-0.4,0-0.8,0-1.3,0
		c-3.5,8.3-7,16.5-10.8,25.4C693.6,794.8,700.5,794.8,708.2,794.8z"/>
	<path class="st1" d="M855,471.2c0,12.1,0,22.8,0,33.4c0,10.6,0,21.3,0,32.3c-5.5,0-10.6,0-16.1,0c-0.1-1.3-0.3-2.7-0.3-4.1
		c0-28,0.1-56-0.1-84c0-4.4,1.1-5.6,5.7-6.1c9.1-1,14.4,2.5,19.3,10.1c12.2,18.8,25.5,36.9,39.3,55.2c0-21.4,0-42.9,0-65
		c5.3,0,9.9-0.1,14.5,0.1c0.8,0,2,1.5,2.3,2.5c0.4,1.4,0.2,3,0.2,4.5c0,26.7,0,53.3,0,80c0,2.1,0,4.3,0,7.2
		c-5.9,0-11.3,0.3-16.7-0.2c-1.5-0.1-3.1-2.3-4.1-3.9c-13.7-19.5-27.2-39-40.8-58.5C857.4,473.9,856.6,473.1,855,471.2z"/>
	<path class="st1" d="M827.4,490.5c0.3,28-20.8,50.1-51.1,49.3c-26.4-0.7-49.1-20.9-47.4-52.9c1.4-27.3,23-46.9,50.8-46
		C807.4,441.7,827.9,462.7,827.4,490.5z M810,490.7c-0.1-20.2-13.1-34.3-31.7-34.3c-18.8,0-32.5,14.3-32.5,33.8
		c0,19.4,13.9,34.1,32.3,34.1C796.7,524.2,810.1,510,810,490.7z"/>
	<path class="st1" d="M552.8,711.2c5.6,0,9.9,0.1,14.2,0c2.9-0.1,4.4,0.7,4.2,3.9c-0.2,3.1,0,6.3,0,10c-2,0.1-3.8,0.3-5.5,0.3
		c-15.3,0-30.6,0.1-45.9,0c-24.6-0.1-44.8-20.1-44.7-44.9c0.1-27.3,21.1-45.1,44-45.4c26.2-0.3,46.2,18.2,46.9,44.6
		c0.2,9.7-2.8,19-9.2,26.8C555.6,707.7,554.6,709,552.8,711.2z M518.6,710.4c16.7,1.3,29.7-10.7,31.1-28.7c1.3-16.3-11-31-26.8-32.2
		c-17.1-1.3-30.7,10.9-31.9,28.6C489.8,695.2,501.7,709.1,518.6,710.4z"/>
	<path class="st1" d="M878.3,678.5c12.3,8.8,15.9,21.2,9.5,32.9c-3.6,6.6-9.5,10.6-16.6,11.7c-9.3,1.5-18.8,1.7-28.2,2.2
		c-4.6,0.3-9.3,0-14.4,0c-0.2-3.2-0.4-5.9-0.4-8.7c0-24.5,0.1-49-0.1-73.5c0-4.7,1.3-6.4,6.2-6.1c11.3,0.7,22.8-0.3,33.8,1.7
		c15.5,2.8,22.6,17.1,16.6,30.6C883.3,672.5,880.6,675.2,878.3,678.5z M844.2,711.6c8.1-1,16-1.4,23.6-3c4.8-1,7.2-5.1,7-10.2
		c-0.2-5-2.4-9.1-7.4-9.9c-7.5-1.3-15.2-1.7-23.2-2.5C844.2,694.9,844.2,702.5,844.2,711.6z M844.2,672.8c7-0.6,13.3-0.8,19.5-1.8
		c4.7-0.8,6.9-4.4,7-9.1c0.1-4.5-1.7-8.3-6.2-9c-6.6-1.1-13.3-1.2-20.2-1.8C844.2,658.8,844.2,665.2,844.2,672.8z"/>
	<path class="st1" d="M411.1,724.9c0-29.3,0-58.2,0-87.1c0.7-0.3,1.2-0.7,1.6-0.6c9.4,1.9,15.2-2.8,18.9-10.6
		c5.1-10.7,13.3-14.3,24.5-12.4c1.2,0.2,2.5,0.2,5,0.3c-7.4,7.6-14.2,14.5-21.9,22.4c10.4,0,19.3,0,29,0c0,4.4,0.3,8.3-0.2,12.2
		c-0.1,0.9-2.5,2.3-3.9,2.3c-10.8,0.2-21.7,0.3-32.5,0c-4.3-0.1-6,1.1-5.7,5.6c0.4,4.8,0.1,9.6,0.1,14.9c13.2,0,25.8,0,38.8,0
		c0,5,0,9.5,0,14.7c-12.8,0-25.6,0-38.5,0c0,8.1,0,15.5,0,23.7c14.6,0,28.9,0,43.6,0c0,5.3,0,9.7,0,14.5
		C450.4,724.9,431,724.9,411.1,724.9z"/>
	<path class="st1" d="M1014.8,672.6c0,4.6,0,9,0,14c-10.1,0-19.9,0-29.6,0c-10.8,0-9.3-1.4-9.4,9.6c0,4.5,0,8.9,0,14.2
		c14.9,0,29.5,0,44.1,0c0,5.3,0,9.7,0,14.5c-19.8,0-39.3,0-59.2,0c0-29.2,0-58.3,0-87.4c1.3-0.2,2.3-0.4,3.3-0.4
		c16.5,0,33,0,49.5-0.1c3.4,0,4.6,1.1,4.6,4.6c-0.2,11.7,1.1,9.8-9.7,9.9c-9,0.1-18,0.1-27-0.1c-3.9-0.1-6,0.9-5.6,5.3
		c0.5,4.9-1.2,11.4,1.4,14.3c2.2,2.5,9,0.9,13.8,1c7.5,0.1,15,0.1,22.5,0.1C1013.7,672.2,1014,672.4,1014.8,672.6z"/>
	<path class="st1" d="M735,725.3c4.9-11.1,9.4-21.3,13.9-31.4c7.9-17.9,16-35.8,23.7-53.8c2-4.6,5.5-2.7,8.5-2.9
		c2.6-0.2,5.5-1.1,7.1,2.7c11.7,27.7,23.5,55.3,35.2,83c0.2,0.6,0.3,1.2,0.5,2.4c-5.3,0-10.2,0.2-15.1-0.1c-1.1-0.1-2.6-1.8-3.2-3.1
		c-2.1-4.3-4-8.8-5.6-13.3c-0.9-2.6-2.2-3.6-5-3.5c-10.2,0.2-20.3,0.2-30.5,0c-3.1-0.1-4.5,1.1-5.4,3.8c-1.7,4.5-3.5,9-5.6,13.3
		c-0.7,1.3-2.5,2.8-3.9,2.9C745.2,725.6,740.7,725.3,735,725.3z M792.6,690.1c-4.2-10.5-8.1-20-12-29.5c-0.4,0-0.9,0-1.3,0.1
		c-4.1,9.6-8.1,19.3-12.4,29.4C775.8,690.1,783.7,690.1,792.6,690.1z"/>
	<path class="st1" d="M577.5,637.4c4.6,0,9.2,0,14.4,0c0.1,2,0.3,3.9,0.3,5.8c0,14.8-0.1,29.7,0.1,44.5c0,3.8,0.4,7.7,1.2,11.4
		c1.9,8.9,9,14.1,18.2,13.6c10.1-0.6,16.7-6.5,17.1-16.6c0.7-17.5,0.7-34.9,0.9-52.4c0.1-6.6,0.1-6.6,6.5-6.6c2.6,0,5.3,0,8.4,0
		c0.1,2,0.4,3.6,0.4,5.2c0,16.5,0.2,33,0,49.5c-0.1,11-2.6,21.4-11.8,28.5c-11.4,8.8-24.4,9.4-37.3,4.2
		c-13.2-5.3-18.2-16.7-18.7-29.9c-0.6-18.5-0.2-37-0.1-55.5C576.9,638.6,577.2,638.2,577.5,637.4z"/>
	<path class="st1" d="M739.7,825.3c-0.2-2.3-0.5-3.7-0.5-5.2c0-22,0.2-44,0-66c0-4.8,1.6-6,6-5.8c7.8,0.4,15.7,0.1,23.4,0.6
		c8.8,0.5,16.3,3.8,20.1,12.4c3.3,7.4,1.5,14-5,22c3.2,4.8,7.4,9,9,14.1c3.7,11.6-2.8,22.4-14.9,25.8c-4.7,1.3-9.8,1.8-14.7,2
		C755.5,825.6,747.9,825.3,739.7,825.3z M752.7,801.8c0,2.7-0.2,5.3,0.1,8c0.1,1,1.4,2.8,2,2.8c6.7-0.5,13.6-0.6,20-2.4
		c2.3-0.6,4.5-5.2,4.9-8.2c0.6-3.9-1.8-7.5-6-8.6c-3.5-0.9-7.1-1.6-10.7-1.6C752.7,791.4,752.7,791.5,752.7,801.8z M752.8,779.8
		c6.4-0.6,12.2-0.8,17.8-1.9c3.8-0.7,5.5-3.8,5.5-7.9c0-3.9-1.5-6.9-5.2-7.5c-5.9-1-12-1.2-18.1-1.7
		C752.8,767.5,752.8,772.9,752.8,779.8z"/>
	<path class="st0" d="M531,521.3c2-5,4.1-9.9,5.9-15c5.5-15.7,5.5-31.6,1-47.6c-4-14.5-8.2-28.9-6.8-44.1c1-10.7,2.3-21.4,4.7-32
		c1.9,5.8,3.2,11.8,5.7,17.3c4.7,9.9,9.7,19.7,15.2,29.1c13.9,23.5,14.7,47.3,2,71.2c-5.3,9.8-14.1,16.7-24.3,21.4
		c-0.6,0.3-1.3,0.3-1.9,0.4C532.2,521.9,531.9,521.7,531,521.3z"/>
	<path class="st1" d="M458.8,748.5c15.7,1.1,32.2-3.3,47.5,5c14.3,7.8,21.4,23.2,18.7,40.1c-2.4,15.5-13.4,28.1-28.9,30.4
		c-11.7,1.7-23.8,1-35.8,1.2c-0.8,0-2.4-1.8-2.4-2.7c-0.1-24.1,0-48.2,0.1-72.3C458,749.8,458.3,749.5,458.8,748.5z M470.9,812.5
		c9.6,0.4,18.7,1.2,27.5-2.4c5.5-2.3,9.4-6.2,11.3-11.9c2.2-6.8,2.5-13.6,0.5-20.6c-2.4-8.4-7.8-13.7-16.1-15.2
		c-6.3-1.2-12.9-0.9-19.4-1.4c-3.2-0.2-3.9,1.4-3.9,4.2c0.1,11.3,0,22.6,0,34C470.9,803.5,470.9,807.8,470.9,812.5z"/>
	<path class="st1" d="M644.9,443.1c7.1,0,13-0.2,18.9,0.2c1.3,0.1,2.9,1.9,3.8,3.2c6.3,9.8,12.4,19.7,18.5,29.6
		c0.7,1.1,1.5,2.1,2.7,3.9c4.1-6.2,7.9-12,11.6-17.8c3.4-5.3,6.6-10.8,10.3-15.9c1.1-1.6,3.6-2.8,5.5-3c4.9-0.4,10-0.1,16-0.1
		c-1.4,2.3-2.3,4-3.3,5.6c-10,15.2-20,30.3-29.8,45.5c-1.3,2-2,4.6-2.1,6.9c-0.2,10.7-0.2,21.3,0,32c0,3.1-0.8,4.4-4.2,4.5
		c-12.3,0.3-12.3,0.4-12.3-11.8c0-2.5-0.3-5.1,0.1-7.5c2.4-15-3.1-27.3-12-39.1C660.5,468,653.4,455.9,644.9,443.1z"/>
	<path class="st1" d="M905.9,812.8c0,4.6,0,8.2,0,12.1c-1.5,0.1-2.8,0.4-4,0.4c-14.3,0-28.6-0.1-43,0.1c-3.5,0-5.1-0.6-5-4.6
		c0.2-22.6,0.1-45.3,0-67.9c0-3.2,1-4.4,4.3-4.4c14,0.1,28,0.1,42,0c2.9,0,4.1,0.9,4.1,4c-0.2,10.6,0.9,8.7-8.7,8.8
		c-8.9,0.1-17.9,0-27.2,0c0,6.1,0,11.7,0,17.8c9,0,17.8,0,26.6,0c7.1,0,7.1,0,7.1,6.4c0,6.2,0,6.1-7,6.1c-8.8,0-17.6,0-27,0
		c0,6.4-0.2,12.3,0.2,18.2c0.1,1,2.7,2.5,4.2,2.5c9.3,0.2,18.6,0.1,28,0.1C902.1,812.5,903.9,812.7,905.9,812.8z"/>
	<path class="st1" d="M533.8,748.8c4.8,0,8.7,0,13.3,0c0,3.4-0.1,6.5,0,9.6c0.3,14.1,0.2,28.3,1,42.4c0.6,9,6.2,13.3,14.9,13.5
		c9,0.2,14.7-4.2,15.7-13.3c0.9-8.7,0.8-17.6,1-26.4c0.1-8.5,0-16.9,0-25.8c4.6,0,8.6,0,12.6,0c0.3,0.6,0.6,0.8,0.6,1.1
		c-0.3,18.3,0.4,36.6-1.2,54.8c-1.2,14.2-13.1,22.5-28.4,22.4c-15.4-0.1-25.8-8.2-28.4-22.6c-0.7-3.9-1-7.9-1-11.9
		C533.8,778.3,533.8,763.8,533.8,748.8z"/>
	<path class="st1" d="M724,651.6c0,8,0,15.2,0,22.3c0,15.3-0.1,30.7,0.1,46c0,4-0.8,5.6-5.2,5.5c-10.9-0.2-10.9,0-10.9-10.7
		c0-19,0-38,0-57c0-1.8,0-3.6,0-6c-9.1,0-17.7,0-26.7,0c0-5.1,0-9.5,0-14.3c23.1,0,46.1,0,69,0c0.3,0.5,0.5,0.8,0.5,1.1
		c0.9,13.1,0.9,13.1-12.2,13.1C734,651.6,729.4,651.6,724,651.6z"/>
	<path d="M611.2,443.3c5.4,0,10.3,0,15.8,0c0.1,2.1,0.3,4,0.3,6c0,22.3,0.1,44.6-0.1,66.9c-0.1,4.7,1.5,5.9,6,5.8
		c10.1-0.3,20.3,0,30.5-0.1c3.1,0,4.6,0.8,4.4,4.2c-0.2,3.5-0.1,6.9-0.1,10.9c-19.1,0-37.7,0-56.8,0
		C611.2,505.9,611.2,474.9,611.2,443.3z"/>
	<path class="st1" d="M917.2,637.4c0,2.1,0,3.9,0,5.7c0,20.5,0.2,41-0.1,61.4c-0.1,5,1.5,6.2,6.2,6c8.6-0.4,17.3-0.1,26-0.1
		c1.8,0,3.6,0.2,5.1,0.4c0.3,0.6,0.4,0.8,0.4,0.9c1.6,13.6,1.6,13.6-12,13.6c-11.7,0-23.3,0-35,0c-1.8,0-3.6,0-5.7,0
		c0-29.6,0-58.6,0-87.9C907.2,637.4,911.9,637.4,917.2,637.4z"/>
	<path class="st0" d="M58.4,101.1c3.6-3,7.2-6.7,11.5-9.5c13.6-9,29.5-12.7,43.3-2.9c5.1,3.6,9.5,8.9,12.9,14.2
		c4.1,6.2,1.5,11.6-5.5,14.6c-11.3,4.8-22.2,2.6-32.7-2.2C78.4,110.8,69,106.1,58.4,101.1z M76.1,95.7c13.6-0.8,25.4,4.7,37.5,9.5
		C102.1,98.1,90.3,92.1,76.1,95.7z"/>
	<path class="st0" d="M320.1,524.1c-3.7,0.9-7,2.1-10.5,2.6c-14.6,2.2-28-0.6-38.4-11.7c-7-7.4-9.2-16.8-8-26.9
		c0.6-5.1,4.8-8.1,10-7.6c9.9,1,18.1,5.2,24.2,13.1c4,5.2,7.6,10.9,11.5,16.2C312.2,514.3,315.9,518.7,320.1,524.1z M273,493.2
		c5.3,12,12.4,21.1,23.7,25.6C289.2,510.8,281.4,502.3,273,493.2z"/>
	<path class="st1" d="M817.1,812.5c9.1,0,17.4,0,25.7,0c7.1,0,7.1,0,7,7.2c0,1.6-0.2,3.3-0.4,5.7c-3.3,0-6.4,0-9.5,0
		c-10.8,0-21.6,0-32.5,0c-2.6,0-4.5-0.2-4.4-3.7c0.1-23.6,0.1-47.3,0.1-70.9c0-0.5,0.2-0.9,0.5-1.9c4.3,0,8.6,0,13.5,0
		C817.1,770.1,817.1,790.8,817.1,812.5z"/>
	<path class="st0" d="M73.4,222.2c16,0.6,32.9-0.8,48.4,6.6c9.6,4.6,18.2,10.7,23.5,20.6c4.9,9.1,1.1,15.2-3.8,21.9
		c-1.8,2.4-4.6,4-7.6,6.5c-4.3-14.9-11.6-26.8-24-34.6C98.1,235.8,85.6,229.2,73.4,222.2z"/>
	<path class="st1" d="M660,637.8c0.7-0.3,0.8-0.4,1-0.4c14-1.5,14-1.5,14,12.3c0,23,0,45.9,0,68.9c0,2,0,3.9,0,6.4
		c-5.1,0-9.8,0-14.9,0C660,695.9,660,666.9,660,637.8z"/>
	<path class="st0" d="M0,233.3c8.4-12.7,24.6-23,42.1-17.8c7.9,2.3,13.4,7.9,17.3,14.9c3.3,5.9,0.9,10.1-5.4,12.8
		c-9.3,4.1-18.4,3-27.5-0.2C17.7,239.9,9,236.6,0,233.3z M11,228.7c12.1-2.6,23.8-0.6,35.3,2.9C34.9,225.6,23.3,222.5,11,228.7z"/>
	<path class="st0" d="M118.3,321.4c-1.7-10.7-2.7-21.3,5.3-30.7c6.1-7.3,14.4-8,23-8.2c0.8,0,1.7,0.2,2.5,0.3
		c3.6,0.5,8.2-0.6,9.8,3.9c2.4,6.6,3,13.4-1.9,19.3c-5.5,6.6-13,9.4-21.1,11.1C130.3,318.2,124.7,319.8,118.3,321.4z M127.2,309.1
		c0.3,0.4,0.6,0.7,0.9,1.1c8.7-5,17.2-10.2,23.5-18.2c-0.3-0.4-0.7-0.9-1-1.3C142.7,296.9,135,303,127.2,309.1z"/>
	<path class="st0" d="M434.5,495.8c-1.9,2.5-2.7,4.1-4,5.3c-11.6,10.6-22.5,22.2-37.2,28.9c-1.2,0.6-2.4,1.2-3.7,1.4
		c-4.4,0.7-9.1,2.1-12.3-2.6c-3.1-4.6,1-7.4,3.2-10.4c11.8-16.2,27.7-24.1,47.8-23.3C430,495.2,431.5,495.5,434.5,495.8z
		 M417.1,500.6c-12,3.9-23.2,8.9-32,19.6C396.3,513.3,406.7,506.9,417.1,500.6z"/>
	<path class="st1" d="M784.5,606.6c0.3,3,1.6,5.6-2.4,5.7c-10.3,0.1-20.6,0-31.1,0c-0.2-1.5-0.5-2.6-0.5-3.8c0-14.7,0.1-29.3-0.1-44
		c0-3.3,0.9-4.7,4.5-4.6c9.1,0.2,18.3,0.1,27.5,0.1c1.6,4,0.4,5.4-3.5,5.3c-7.3-0.1-14.6,0-22.3,0c0,5.8,0,11,0,16.7
		c8.2,0,16.1,0,24,0c1.9,4.1,0.8,5.6-3.2,5.5c-5.7-0.1-11.3,0.1-17-0.1c-3-0.1-4,1-4.2,4c-0.7,15.2-0.8,15.2,14.3,15.2
		C775.2,606.6,779.8,606.6,784.5,606.6z"/>
	<path class="st1" d="M611.9,560.5c4.6-1.5,6.7,0,8.1,3.9c3.9,11.3,8.2,22.4,12.4,33.6c0.5,1.4,1.2,2.7,2.3,5
		c3-7.8,5.7-14.7,8.3-21.6c2.3-5.9,4.7-11.7,6.7-17.6c1.3-3.9,3.5-4.8,7.6-3.1c-2.2,5.6-4.2,11.2-6.4,16.7c-4,10.4-8,20.8-12.2,31
		c-0.7,1.6-2.8,3.5-4.4,3.6c-1.4,0-3.6-2-4.2-3.6c-5.9-15-11.6-30-17.3-45.1C612.4,562.5,612.2,561.6,611.9,560.5z"/>
	<path class="st0" d="M108.7,564.1c3.7-10.9,7.8-20.1,18.6-24c5.5-2,10.2,0.7,14.3,3.7c3.2,2.4,2.4,8.4-1.7,11.3
		c-4.2,3-8.9,5.7-13.8,7C120.8,563.6,115.1,563.5,108.7,564.1z"/>
	<path class="st1" d="M720.9,606.5c8.2,0,15.7,0,23.8,0c0.2,2.1,0.3,3.6,0.4,5.5c-10.1,0-19.8,0-30.2,0c0-4.4,0-8.5,0-12.6
		c0-11.5,0.1-22.9-0.1-34.4c-0.1-4.2,1.1-6.1,6.1-4.4C720.9,575.5,720.9,590.7,720.9,606.5z"/>
	<path class="st1" d="M709.9,606.6c0,2.3,0,3.6,0,5.3c-9.9,0-19.6,0-29.6,0c-0.2-1.2-0.5-2.5-0.5-3.8c0-14.5,0-29,0-43.4
		c0-1.9-0.9-4.7,2.7-4.7c4-0.1,2.8,3,2.8,5c0.1,12.3,0.2,24.6,0,36.9c-0.1,3.8,1.2,4.9,4.8,4.7C696.6,606.4,703.1,606.6,709.9,606.6
		z"/>
	<path class="st1" d="M662.5,560.2c1.8,0,3.3,0,5.2,0c0,17.2,0,34.2,0,51.8c-1.6,0.1-3.1,0.2-5.2,0.3
		C662.5,594.9,662.5,577.9,662.5,560.2z"/>
</g>
</svg>
