<svg xmlns="http://www.w3.org/2000/svg" width="168.069" height="354.426" viewBox="0 0 168.069 354.426">
  <defs>
    <style>
      .cls-1 {
        fill: rgba(0,0,0,0.29);
      }

      .cls-1, .cls-10, .cls-2, .cls-3, .cls-5, .cls-6, .cls-7, .cls-8, .cls-9 {
        fill-rule: evenodd;
      }

      .cls-2 {
        fill: #e6e6e6;
      }

      .cls-2, .cls-4, .cls-9 {
        stroke: #333;
      }

      .cls-3 {
        fill: #00325c;
        stroke: #00192e;
      }

      .cls-4 {
        fill: none;
      }

      .cls-5 {
        fill: #087676;
      }

      .cls-10, .cls-5 {
        stroke: #000;
      }

      .cls-6 {
        fill: #e9d2af;
        stroke: #3f2d10;
      }

      .cls-7 {
        fill: #28170b;
      }

      .cls-7, .cls-8 {
        stroke: #120a04;
      }

      .cls-8 {
        fill: #b99d28;
      }

      .cls-9 {
        fill: #fff;
      }
    </style>
  </defs>
  <g id="Paul" transform="translate(-3.547 -5.671)">
    <path id="path2812" class="cls-1" d="M78.594,115.53c-4.97,1.826-16.233-1.916-23.617-3.982-6.258-1.767-12.553,3.5-15.352,6.647-3.754,4.252-4.583,12.635-3.545,17.306,2.209,9.97,14.292,9.312,20.075,7.994,5.331-1.2,11.271,3.862,16.533,5.33,6.043,1.707,22.6-1.078,30.178-1.078,7.7,0,29.695,8.054,37.334,3.743,5.924-3.323,11.39-2.305,16.531-6.647,4.017-3.413,5.913-9.372,7.087-14.641,2.082-9.4-4.984-10.809-9.447-13.324-5.738-3.234-15.684-1.258-20.075,0-4.708,1.317-37.347-6.677-43.894-6.677-5.308,0-2.812,5.33-11.807,5.33Z" transform="translate(3.692 207.338)"/>
    <path id="path2818" class="cls-2" d="M86.666,112.912c6.253,4.91,16.082,8.294,22.019,15.45.847,2.814.478,5.9.494,8.863-.783,3.8-3.043,5.958-5.8,8.024-7.076,2.066-14.383-1.258-21.127-3.593-6.027-1.048-13-3.563-16.669-9.342-5.8-7.725-4.025-14.1-2.347-23.564C71.011,110.457,78.8,111.864,86.666,112.912Z" transform="translate(46.614 204.447)"/>
    <path id="path2820" class="cls-3" d="M78.606,88.385c5.78,8.159,5.209,11.369,12.811,24.51-1.378,7.62,1.184,14.923,1.659,22.468-1.367,6.587.364,17.037-3.651,21.707-6.983,5.928-17.7,5.659-21.573-1.886.664-2.994.159-4.791,1.328-7.845,3.414-8.2,1.8-17.576.664-26.211-.154-11.351-10.955-19.677-10.578-31.037,5.756-2.4,15.708-6.485,19.34-1.707Z" transform="translate(42.734 159.42)"/>
    <path id="path2824" class="cls-4" d="M106.145,130.756c-8.457.9-17.516.749-23.615-2.964-7.567-2.156-14.237-4.88-20.423-14.342" transform="translate(47.452 213.819)"/>
    <g id="g2845" transform="translate(49.712 246.173)">
      <g id="g2839">
        <g id="g2834">
          <path id="path2814" class="cls-2" d="M106.557,176.09c-8.433,1.886-15.37,3.653-22.531,9.521-1.593,2.156-1.519,4.252-1.407,6.887.629,2.305,1.357,4.521,1.877,6.887,7.307.778,15.381,5.689,23.012,2.934,8.013.12,16.117-3.054,22.754-8.5,1.54-5.12-.106-12.036-.478-17.725C122.4,178.725,114,178.276,106.557,176.09Z" transform="translate(-82.567 -102.06)"/>
          <path id="path2816" class="cls-4" d="M83.293,185.2c8.634-1.677,17.264,4.7,26.251,3.353,8.348-.3,12.678-7.156,18.8-7.605" transform="translate(-81.364 -92.368)"/>
          <path id="path2822" class="cls-3" d="M101.644,152.877c-.385,2.335-8.462,16.857-7.761,20.809,2.506,8.384-.433,15.15-2.289,23.654.042,8.354-2.315,22.306,2.987,28.444,7.554,3.383,15.15,5.539,21.57-1.856-3.306-11.557-1.221-22.576.345-34.612.08-11.378,7.673-19.582,7.3-31.019C118.036,155.9,105.276,148.117,101.644,152.877Z" transform="translate(-68.43 -151.365)"/>
        </g>
      </g>
    </g>
    <path id="path2794" class="cls-5" d="M122.472,172.624c-.442-13.054-1.3-28.39-.35-40.259-3.26-14.842.812-29.468-1.983-44.3-1.235-9.3,6.364-17.893,2.22-26-4.737-7.225-16.706-10.587-24.748-11.051-10.318,1.707-20.731.135-30.977,2.647-7.325,3.595-21.421,7.212-23.012,16.053,0-.031-6.963,1.546-6.989,1.832-.364,8.306,15.74,19.336,12.326,26.833-1.028,13.33-4.538,28.384-2.873,41.75,2.374,15.552-1.7,22.025-.17,37.531,11.9-7.683,25.842-.09,39.354-1.8,11.332-4.569,30.174,6.458,37.2-3.234Z" transform="translate(19.208 89.304)"/>
    <path id="path2792" class="cls-6" d="M54.807,68.1c1.744,14.548,24.929,15.977,35.446,5.324-1.662-8.051-2.105-17.312-8.231-22.905-5.706-2.291-11.775-1.943-17.734-1.572C58.978,51.723,54.847,62.76,54.807,68.1Z" transform="translate(35.37 84.655)"/>
    <path id="path2649" class="cls-6" d="M47.069,35.754c-3.741,14.375,1.681,31.3,5.021,45.379-4.84,17.528-6.8,39.8,10.673,47.191s53.371,9.446,59.212-17.636c3.627-34.064-2.955-14.444,3.911-42.9,2.27-36.867-9.33-61.859-40.066-59.179C64.574,7.82,55.456,20.175,47.069,35.754Z" transform="translate(20.467 4.354)"/>
    <path id="path2654" class="cls-7" d="M101.306,53.2c1.495,6.952-32.156,11.514-31.939,0C68.826,47.207,97.586,49.674,101.306,53.2Z" transform="translate(22.116 57.981)"/>
    <path id="path2665" class="cls-8" d="M88.6,31.338c11.9-3.084,9.943-6.276,12.973-10.45,23.246-2.581,24.241,22.977,21.607,33.415,4.4-4.473,2.084-6.734,7.517-2.419,1.248,1.207.305,12.159.093,13.578-.226,1.494-4.944,20.549-3.951,21,11.887-8.135,14.046-43.876,1.367-63.449-9.351-14.442-25.84-20.2-40.031-14.784C47.362-1.278,33.125,56.058,53.192,95.578c2.342-8.94-4.336-26.9-1.389-36.63,2.453-2.464,3.1,2.407,6.269,2.024C47.4,36.623,59.118,23.464,73.411,20.931,77.083,17.266,77,30.036,88.6,31.339Z" transform="translate(17.788 0)"/>
    <path id="path2696" class="cls-9" d="M65.875,28.386c-4.532,9.133-1.242,14.585,8.143,13.4,2.855,1.259,8.962-5.372,7.662-9.857,1.239-11.966-9.589-12.4-15.805-3.546Z" transform="translate(50.356 31.529)"/>
    <path id="path2698" class="cls-9" d="M64.323,23.4c-6.882,1.455-12.177,5.47-10.958,13.5C61.062,52.068,83.537,30.367,64.323,23.4Z" transform="translate(32.553 31.775)"/>
    <path id="path2700" class="cls-10" d="M71.4,27.427c1.394.06-1.62-6.132-5.167-1.572-2.751,3.533.117,8.327,2.129,8.728C72.409,35.385,73.136,28.059,71.4,27.427Z" transform="translate(50.569 36.834)"/>
    <path id="path2702" class="cls-10" d="M58.057,25.261c1.256-2.817-5.772-.671-4.07,5.91,1.174,4.545,5.613,1.847,5.95,1.611,4.508-3.168,1.022-11.518-1.88-7.521Z" transform="translate(33.569 35.542)"/>
    <path id="path2704" class="cls-6" d="M62.989,28.122c1.736,6.262-9.8,17.081,3.528,16.758,12.431-.03,4.132-10.937,3.779-16.994" transform="translate(39.127 43.191)"/>
    <path id="path2708" class="cls-6" d="M75.255,23.744c19.682-8.854,11.515,21.489.4,17.977" transform="translate(69.213 31.691)"/>
    <path id="path2710" class="cls-6" d="M76.52,25.037c5.647-4.74,7.809,4.8-.465,8.973" transform="translate(70.537 34.94)"/>
    <path id="path2743" class="cls-6" d="M54.788,25.247C34.221,19.5,45.975,48.3,56.564,43.116" transform="translate(16.62 36.41)"/>
    <path id="path2745" class="cls-6" d="M49.975,26.957c-6.168-3.826-7.158,5.955,1.543,8.821" transform="translate(19.417 39.595)"/>
    <path id="path2808" class="cls-6" d="M85.739,99.75c1.468,9.764,1.314,21.058-2.655,29.941-2.915,3.386-7.134-1.518-9.293,3.368.863,4.228,4.485,5.309,7.965,6.363-2.493,5.56-7.28,10.237-2.323,16.468,3.213-1.859,5.427-6.042,6.306-9.731.364,4.3-2.857,12.845,4.315,9.357,3.481-2.943,1.784-7.243,1.991-11.6,2.783,4.85,3.622,12.144,7.3,3.743.369-3.767-1.243-6.386-2.987-9.357-.454-3.8.751-7.776,1.328-11.6,4.23-8.066,6.638-26.2,6.638-26.2s.082-17.165-3.983-24.327a37.45,37.45,0,0,0-3.983-8.608c-7.474-2.41-13.554.042-16.926,7.86C75.464,85.752,84,91.333,85.739,99.75Z" transform="translate(66.79 120.542)"/>
    <path id="path2796" class="cls-5" d="M70.95,82.193c.8,2.569,2.183,3.512,5.39,10.117,2.82,6.857,4.429,11.093,5.61,18.483,10.806-3.422,16.494-7.9,26.9-13.9-2.074-5.892-5.132-11.605-7.113-17.558-2.966-7.767-7.745-9.53-11.964-15.923a77.307,77.307,0,0,0-12.107-9.39" transform="translate(62.088 95.31)"/>
    <path id="path2810" class="cls-6" d="M20.544,54.6c-2.9-8.825-4.376-19.551-1.63-29.059,2.469-4.019,7.456-.559,8.943-5.783-1.487-3.759-5.317-3.77-9-3.792C20.585,10,24.765,4.243,18.835-.264,15.842,2.393,14.2,6.965,13.843,10.7c-.991-3.967,1.042-12.95-5.728-7.644-3.107,3.753-.766,7.349-.345,11.529C4.243,10.777,2.34,4.114-.18,13.089-.012,16.753,2,18.782,4.2,21.1c1.009,3.465.36,7.564.327,11.344C1.4,41.258,1.481,50.088,1.578,59.08c1.942,8.835,2.391,16.261,7.553,21.9a29.787,29.787,0,0,0,5.281,7.031c7.932.19,13.748-3.828,16.042-12.165,2.535-10.878-6.931-13.774-9.91-21.247Z" transform="matrix(0.891, -0.454, 0.454, 0.891, 4.568, 91.57)"/>
    <path id="path2798" class="cls-5" d="M57.655,14.982a16.8,16.8,0,0,0-9.291,6.845c-3.241,5.881-27.577,5.86-29,12.379C7.4,30.082,15.074,31.4,6.08,19.12,6.111,19.054-.094,7.686.09,7.374,2.67,2.668,22.614,5.367,24.878.282" transform="translate(64.244 127.045) rotate(69)"/>
  </g>
</svg>
