<svg xmlns="http://www.w3.org/2000/svg" width="133.745" height="334.737" viewBox="0 0 133.745 334.737">
  <defs>
    <style>
      .cls-1 {
        fill: rgba(0,0,0,0.3);
      }

      .cls-1, .cls-10, .cls-2, .cls-3, .cls-5, .cls-6, .cls-7, .cls-8, .cls-9 {
        fill-rule: evenodd;
      }

      .cls-2 {
        fill: #e6e6e6;
      }

      .cls-2, .cls-4, .cls-9 {
        stroke: #333;
      }

      .cls-3 {
        fill: #00325c;
        stroke: #00192e;
      }

      .cls-4 {
        fill: none;
      }

      .cls-5 {
        fill: #087676;
      }

      .cls-10, .cls-5 {
        stroke: #000;
      }

      .cls-6 {
        fill: #e9d2af;
        stroke: #3f2d10;
      }

      .cls-7 {
        fill: #28170b;
      }

      .cls-7, .cls-8 {
        stroke: #120a04;
      }

      .cls-8 {
        fill: #b99d28;
      }

      .cls-11, .cls-9 {
        fill: #fff;
      }

      .cls-11 {
        font-size: 14px;
        font-family: HelveticaNeue-Bold, Helvetica Neue;
        font-weight: 700;
      }
    </style>
  </defs>
  <g id="paul" transform="translate(-31.597 -5.672)">
    <path id="path2812" class="cls-1" d="M76.009,115.35c-4.671,1.765-15.256-1.852-22.2-3.848-5.881-1.707-11.8,3.385-14.427,6.423-3.528,4.108-4.307,12.209-3.331,16.723,2.076,9.634,13.432,9,18.866,7.725,5.01-1.157,10.592,3.732,15.538,5.15,5.679,1.649,21.242-1.042,28.361-1.042,7.236,0,27.907,7.783,35.085,3.617,5.567-3.211,10.7-2.228,15.535-6.423,3.775-3.3,5.557-9.056,6.66-14.148,1.956-9.085-4.684-10.445-8.878-12.875-5.392-3.125-14.739-1.215-18.866,0-4.424,1.273-35.1-6.452-41.251-6.452-4.988,0-2.642,5.15-11.1,5.15Z" transform="translate(5.333 189.085)"/>
    <path id="path2818" class="cls-2" d="M85.156,112.772c5.876,4.745,15.114,8.014,20.693,14.929.8,2.72.449,5.7.464,8.564-.736,3.674-2.86,5.757-5.452,7.754-6.65,2-13.517-1.215-19.855-3.472-5.664-1.013-12.214-3.443-15.665-9.027-5.447-7.464-3.783-13.627-2.206-22.77C70.444,110.4,77.763,111.759,85.156,112.772Z" transform="translate(44.109 186.34)"/>
    <path id="path2820" class="cls-3" d="M77.441,88.31c5.432,7.884,4.9,10.986,12.039,23.684-1.3,7.363,1.113,14.42,1.56,21.711-1.285,6.365.342,16.462-3.431,20.976-6.562,5.729-16.631,5.468-20.274-1.823.624-2.893.15-4.629,1.248-7.58,3.209-7.927,1.689-16.983.624-25.327-.145-10.968-10.3-19.014-9.941-29.991,5.41-2.317,14.762-6.267,18.175-1.649Z" transform="translate(40.604 143.592)"/>
    <path id="path2824" class="cls-4" d="M103.493,130.173c-7.947.868-16.461.723-22.193-2.864-7.111-2.083-13.379-4.716-19.193-13.858" transform="translate(44.866 195.238)"/>
    <g id="g2845" transform="translate(50.73 230.325)">
      <g id="g2839">
        <g id="g2834">
          <path id="path2814" class="cls-2" d="M105.112,176.09c-7.925,1.823-14.445,3.53-21.175,9.2-1.5,2.083-1.427,4.108-1.322,6.654.591,2.228,1.275,4.369,1.764,6.654,6.867.752,14.455,5.5,21.626,2.835,7.531.116,15.146-2.951,21.384-8.217,1.447-4.947-.1-11.631-.449-17.128C120,178.636,112.1,178.2,105.112,176.09Z" transform="translate(-82.567 -104.555)"/>
          <path id="path2816" class="cls-4" d="M83.293,185.058c8.114-1.62,16.224,4.542,24.67,3.24,7.845-.289,11.915-6.915,17.666-7.349" transform="translate(-81.481 -95.354)"/>
          <path id="path2822" class="cls-3" d="M101.009,152.826c-.362,2.257-7.952,16.289-7.294,20.108,2.356,8.1-.407,14.64-2.151,22.856.04,8.072-2.176,21.554,2.807,27.485,7.1,3.269,14.238,5.352,20.271-1.794-3.107-11.168-1.148-21.815.324-33.446.075-10.994,7.211-18.922,6.862-29.974C116.415,155.748,104.423,148.226,101.009,152.826Z" transform="translate(-69.796 -151.365)"/>
        </g>
      </g>
    </g>
    <path id="path2794" class="cls-5" d="M119.731,168.45c-7-10.013-3.144-27.358-2.251-38.827-3.064-14.342.764-28.475-1.864-42.811-1.16-8.986,5.981-17.29,2.086-25.125-4.451-6.981-15.7-10.23-23.258-10.679-9.7,1.649-19.483.13-29.112,2.558-7.1,3.585-19.488,6.267-20.279,15.158-.342,8.026,6.877,20.808,3.668,28.053-.966,12.881-4.264,27.428-2.7,40.343,2.231,15.027-1.6,21.282-.16,36.266,11.181-7.424,24.286-.087,36.984-1.736,10.65-4.415,30.28,6.165,36.885-3.2Z" transform="translate(19.35 80.205)"/>
    <path id="path2792" class="cls-6" d="M54.807,67.447C56.446,81.5,78.235,82.885,88.118,72.591c-1.562-7.78-1.979-16.729-7.735-22.133-5.362-2.213-11.066-1.878-16.666-1.519C58.727,51.621,54.844,62.285,54.807,67.447Z" transform="translate(33.951 77.309)"/>
    <path id="path2649" class="cls-6" d="M46.993,34.832c-3.516,13.89,1.579,30.246,4.718,43.85-4.549,16.937-3.957,32.378,9.9,45.889,16.029,6.044,50.289,8.839,55.778-17.33,3.408-32.916-2.777-13.957,3.675-41.457C123.2,30.159,112.3,6.01,83.411,8.6,63.444,7.84,54.875,19.779,46.993,34.832Z" transform="translate(20.488 4.134)"/>
    <path id="path2654" class="cls-7" d="M99.382,53.073c1.4,6.718-30.22,11.126-30.016,0C68.858,47.287,95.886,49.671,99.382,53.073Z" transform="translate(20.619 52.275)"/>
    <path id="path2665" class="cls-8" d="M85.926,30.492c11.181-2.98,9.345-6.064,12.192-10.1C119.964,17.9,120.9,42.6,118.424,52.683c4.135-4.322,1.959-6.507,7.064-2.338,1.173,1.166.287,11.749.087,13.121-.212,1.444-4.646,19.856-3.713,20.3,11.171-7.861,13.2-42.4,1.285-61.31C114.359,8.5,98.864,2.929,85.527,8.165,47.17-1.025,33.791,54.379,52.65,92.566c2.2-8.639-4.075-25.993-1.305-35.4,2.306-2.381,2.912,2.326,5.891,1.956C47.21,35.6,58.219,22.883,71.651,20.435c3.451-3.541,3.374,8.8,14.275,10.057Z" transform="translate(18.067 0)"/>
    <path id="path2696" class="cls-9" d="M65.754,28.18c-4.259,8.825-1.167,14.094,7.652,12.951,2.683,1.216,8.422-5.191,7.2-9.525C81.772,20.043,71.6,19.625,65.754,28.18Z" transform="translate(47.49 29.925)"/>
    <path id="path2698" class="cls-9" d="M63.653,23.4c-6.467,1.406-11.444,5.286-10.3,13.045C60.588,51.1,81.709,30.132,63.653,23.4Z" transform="translate(31.401 30.125)"/>
    <path id="path2700" class="cls-10" d="M71.02,27.317c1.31.058-1.522-5.925-4.856-1.519-2.585,3.414.11,8.046,2,8.434C71.968,35.007,72.652,27.928,71.02,27.317Z" transform="translate(47.615 34.987)"/>
    <path id="path2702" class="cls-10" d="M57.8,25.22c1.18-2.723-5.425-.648-3.825,5.711,1.1,4.392,5.275,1.785,5.592,1.557,4.237-3.061.961-11.13-1.767-7.268Z" transform="translate(32.324 33.744)"/>
    <path id="path2704" class="cls-6" d="M62.81,28.114c1.631,6.051-9.206,16.505,3.316,16.193,11.683-.029,3.883-10.568,3.551-16.421" transform="translate(37.169 39.512)"/>
    <path id="path2708" class="cls-6" d="M75.255,23.689c18.5-8.555,10.822,20.765.374,17.371" transform="translate(64.525 30.087)"/>
    <path id="path2710" class="cls-6" d="M76.492,24.994c5.307-4.58,7.338,4.638-.437,8.671" transform="translate(65.721 33.172)"/>
    <path id="path2743" class="cls-6" d="M54.107,25.221C34.779,19.666,45.825,47.5,55.776,42.488" transform="translate(17.012 33.299)"/>
    <path id="path2745" class="cls-6" d="M49.686,26.928c-5.8-3.7-6.727,5.755,1.45,8.523" transform="translate(19.539 37.591)"/>
    <path id="path2808" class="cls-6" d="M85.02,98.635c1.38,9.435,1.235,20.348-2.5,28.932-2.74,3.272-6.7-1.467-8.733,3.255.811,4.085,4.214,5.13,7.486,6.148-2.343,5.373-6.842,9.892-2.183,15.913,3.019-1.8,5.1-5.839,5.926-9.4.342,4.158-2.685,12.412,4.055,9.041,3.271-2.844,1.677-7,1.871-11.211,2.615,4.687,3.4,11.735,6.862,3.617.347-3.64-1.168-6.171-2.807-9.041-.427-3.669.706-7.514,1.248-11.211,3.975-7.794,5.1-16.474,6.238-25.316-4.529-6.9.077-16.587-3.743-23.507A36.67,36.67,0,0,0,95,67.533c-7.024-2.329-12.738.041-15.907,7.595C75.363,85.109,83.385,90.5,85.02,98.635Z" transform="translate(62.336 109.126)"/>
    <path id="path2796" class="cls-5" d="M70.95,81.243c.751,2.482,2.051,3.394,5.065,9.776,2.65,6.625,4.162,10.719,5.272,17.86,10.156-3.307,15.5-7.629,25.282-13.433-1.949-5.694-4.823-11.214-6.685-16.966-2.787-7.505-7.279-9.209-11.244-15.386a72.951,72.951,0,0,0-11.378-9.073" transform="translate(58.088 86.749)"/>
    <path id="path2810" class="cls-6" d="M52.909,98.883c-3.042,8.9-4.858,19.607-2.747,28.9,2.094,3.862,6.819.182,7.96,5.289-1.527,3.8-5.043,4-8.424,4.21,1.33,5.821,4.918,11.327-.719,16.092-2.632-2.485-3.942-6.938-4.11-10.627-1.08,3.984.4,12.791-5.587,7.867-2.69-3.567-.387-7.25.18-11.417-3.4,3.955-5.435,10.659-7.361,1.883.312-3.643,2.248-5.755,4.367-8.168,1.075-3.486.656-7.519.788-11.266-2.493-8.581-2.039-17.342-1.562-26.265,5.664-5.665,2.894-16.245,7.875-22.093a33.757,33.757,0,0,1,5.15-7.236c7.289-.584,12.454,3.11,14.2,11.263,1.859,10.661-6.954,14.006-10.011,21.566Z" transform="translate(0 107.883)"/>
    <path id="path2798" class="cls-5" d="M70.409,79.114c-1.707,7.088,1.023,3.6-2.283,9.788-2.954,6.449-6.348,18.757-7.788,25.816-9.988-3.935-18.1-15.042-27.6-21.447,2.211-5.564,8.144-11.3,10.27-16.925,3.134-7.317,6.221-7.193,10.467-13.115,3.9-3.449,5.008-8.087,13.085-8.445" transform="translate(0.952 88.067)"/>
    <text id="Cliquez_sur_moi" data-name="Cliquez sur 
moi" class="cls-11" transform="translate(74.397 179.304)"><tspan x="0.614" y="14">Cliquez </tspan><tspan x="14.859" y="31">sur </tspan><tspan x="13.067" y="48">moi</tspan></text>
  </g>
</svg>
