<svg xmlns="http://www.w3.org/2000/svg" width="147.562" height="348.496" viewBox="0 0 147.562 348.496">
  <defs>
    <style>
      .cls-1 {
        fill: #28170b;
        stroke: #120a04;
      }

      .cls-1, .cls-2, .cls-3, .cls-4, .cls-6, .cls-7, .cls-8, .cls-9 {
        fill-rule: evenodd;
      }

      .cls-2 {
        fill: rgba(0,0,0,0.18);
      }

      .cls-3 {
        fill: #e6e6e6;
      }

      .cls-3, .cls-5, .cls-8 {
        stroke: #333;
      }

      .cls-4 {
        fill: #00325c;
        stroke: #00192e;
      }

      .cls-10, .cls-5 {
        fill: none;
      }

      .cls-6 {
        fill: #1a1a1a;
      }

      .cls-6, .cls-9 {
        stroke: #000;
      }

      .cls-7 {
        fill: #e9d2af;
      }

      .cls-10, .cls-7 {
        stroke: #3f2d10;
      }

      .cls-11, .cls-8 {
        fill: #fff;
      }

      .cls-11 {
        font-size: 14px;
        font-family: HelveticaNeue-Bold, Helvetica Neue;
        font-weight: 700;
      }
    </style>
  </defs>
  <g id="pierre" transform="translate(-40.595 -5.673)">
    <path id="path2866" class="cls-1" d="M69.6,32.8c-4.4,1.235,7.569,14.779,9.183,17.611C81.284,54.8,91.774,59.339,96,62.58c3.588,2.751,13.893-3.706,16.468-5.676,4.331-3.319,10.757-2.251,13.633-.634,8.966,5.04,1.91-4.022-.949-7.172-2.242-2.471-9.9-4.5-13.317-5.827-5.815-2.257-7.956-6.134-13.161-9.059-4.971-2.795-9.637-1.551-14.894-.078C80.5,35.056,73.837,32.476,69.6,32.8Z" transform="translate(57.155 92.825)"/>
    <path id="path2812" class="cls-2" d="M82.443,115.35c-5.416,1.765-17.689-1.852-25.735-3.848-6.819-1.707-13.679,3.385-16.729,6.423-4.091,4.108-4.994,12.209-3.862,16.723,2.407,9.634,15.574,9,21.876,7.725,5.81-1.157,12.282,3.732,18.016,5.15,6.585,1.649,24.63-1.042,32.884-1.042,8.39,0,32.358,7.783,40.681,3.617,6.455-3.211,12.412-2.228,18.013-6.423,4.377-3.3,6.443-9.056,7.722-14.148,2.268-9.085-5.431-10.445-10.294-12.875-6.252-3.125-17.09-1.215-21.876,0-5.13,1.273-40.7-6.452-47.831-6.452-5.784,0-3.064,5.15-12.866,5.15Z" transform="translate(6.752 202.845)"/>
    <path id="path2818" class="cls-3" d="M88.913,112.772c6.814,4.745,17.524,8.014,23.993,14.929.923,2.72.521,5.7.538,8.564-.854,3.674-3.316,5.757-6.322,7.754-7.71,2-15.673-1.215-23.021-3.472-6.568-1.013-14.162-3.443-18.164-9.027-6.316-7.464-4.386-13.627-2.558-22.77C71.855,110.4,80.341,111.759,88.913,112.772Z" transform="translate(55.849 194.1)"/>
    <path id="path2820" class="cls-4" d="M80.341,88.31c6.3,7.884,5.676,10.986,13.96,23.684-1.5,7.363,1.29,14.42,1.808,21.711-1.49,6.365.4,16.462-3.978,20.976-7.609,5.729-19.283,5.468-23.507-1.823.723-2.893.174-4.629,1.447-7.58,3.721-7.927,1.959-16.983.723-25.327-.168-10.968-11.937-19.014-11.527-29.991,6.272-2.317,17.116-6.267,21.074-1.649Z" transform="translate(51.411 151.352)"/>
    <path id="path2824" class="cls-5" d="M110.094,130.173c-9.215.868-19.087.723-25.732-2.864-8.246-2.083-15.513-4.716-22.255-13.858" transform="translate(56.808 202.998)"/>
    <g id="g2845" transform="translate(53.701 238.085)">
      <g id="g2839">
        <g id="g2834">
          <path id="path2814" class="cls-3" d="M108.708,176.09c-9.189,1.823-16.749,3.53-24.552,9.2-1.736,2.083-1.655,4.108-1.533,6.654.686,2.228,1.478,4.369,2.046,6.654,7.962.752,16.76,5.5,25.075,2.835a41.806,41.806,0,0,0,24.795-8.217c1.678-4.947-.116-11.631-.521-17.128C125.969,178.636,116.815,178.2,108.708,176.09Z" transform="translate(-82.567 -104.555)"/>
          <path id="path2816" class="cls-5" d="M83.293,185.058c9.409-1.62,18.812,4.542,28.605,3.24,9.1-.289,13.815-6.915,20.484-7.349" transform="translate(-81.192 -95.354)"/>
          <path id="path2822" class="cls-4" d="M102.589,152.826c-.42,2.257-9.221,16.289-8.457,20.108,2.731,8.1-.472,14.64-2.494,22.856.046,8.072-2.523,21.554,3.255,27.485,8.231,3.269,16.509,5.352,23.5-1.794-3.6-11.168-1.331-21.815.376-33.446.087-10.994,8.361-18.922,7.956-29.974C120.451,155.748,106.546,148.226,102.589,152.826Z" transform="translate(-66.396 -151.365)"/>
        </g>
      </g>
    </g>
    <path id="path2794" class="cls-6" d="M123.531,169.795c-8.116-10.013-10.372-28.987-9.336-40.456.379-14.511,15.725-28.19,12.678-42.526-1.345-8.986,6.935-17.29,2.419-25.125-5.161-6.981-18.2-10.23-26.968-10.679-11.243,1.649-22.59.13-33.755,2.558-8.237,3.585-22.6,6.267-23.513,15.158-.4,8.026,7.974,20.808,4.253,28.053-1.12,12.881,2.88,27.476,4.694,40.391,2.587,15.027-1.666,19.5,0,34.482,15.822-2.1,20.15,1.649,34.873,0,12.348-4.415,27,7.51,34.654-1.855Z" transform="translate(24.501 84.784)"/>
    <path id="path2792" class="cls-7" d="M54.807,67.447c1.9,14.058,27.164,15.438,38.624,5.144-1.811-7.78-2.294-16.729-8.969-22.133-6.217-2.213-12.831-1.878-19.324-1.519C59.352,51.621,54.85,62.285,54.807,67.447Z" transform="translate(42.987 80.371)"/>
    <path id="path2649" class="cls-7" d="M47.182,34.832c-4.077,13.89,1.831,30.246,5.471,43.85-5.274,16.937-4.589,32.378,11.477,45.889,18.586,6.044,58.31,8.839,64.675-17.33,3.952-32.916-3.22-13.957,4.262-41.457C135.541,30.159,122.9,6.01,89.409,8.6,66.257,7.84,56.322,19.779,47.182,34.832Z" transform="translate(25.941 4.134)"/>
    <path id="path2654" class="cls-1" d="M86.9,35.318c-16.089-.9-24.387,8.6-33.587,14.3-1.559.521-2.647,2.63-3.862,4.05-4.861,10.167,2.2,21.242,11.289,27.567A33.982,33.982,0,0,0,84.474,85.66c7.9-1.406,16.494-1.013,23.467-4.765,11.527-1.693,15.534-7.968,16.888-19.225-.506-7.661-4.267-16.734-10.809-20.493-8.526-2.413-18.253-7.331-27.118-5.859Zm-2.239,9.747c5.254,1.519,15.456,4.606,19.509,8.008,1.629,6.718-1.551,13.4-8.483,12.594-4.5-5.431-13.511-4.1-18.569.992-6.035,1.076-8.558-6.1-8.4-11.127,1.959-5.28,11.379-7.65,15.947-10.468Z" transform="translate(29.85 54.566)"/>
    <path id="path2665" class="cls-1" d="M92.584,30.492c12.964-2.98,10.835-6.064,14.136-10.1,25.33-2.494,26.415,22.2,23.545,32.288,4.794-4.322,2.271-6.507,8.191-2.338,1.36,1.166.333,11.749.1,13.121-.246,1.444-5.387,19.856-4.305,20.3,12.953-7.861,15.305-42.4,1.49-61.31C125.552,8.5,107.585,2.929,92.121,8.165,47.647-1.025,32.133,54.379,54,92.566c2.552-8.639-4.725-25.993-1.513-35.4,2.673-2.381,3.376,2.326,6.831,1.956C47.693,35.6,60.458,22.883,76.032,20.435c4-3.541,3.912,8.8,16.552,10.057Z" transform="translate(22.876 0)"/>
    <path id="path2696" class="cls-8" d="M65.682,28.035c-4.1,8.607-1.123,13.746,7.36,12.632,2.581,1.186,8.1-5.063,6.926-9.29C81.088,20.1,71.3,19.691,65.682,28.035Z" transform="translate(60.13 30.394)"/>
    <path id="eye-left" class="cls-8" d="M63.145,22.138c-7.5,1.406-11.093,6.547-9.765,14.307C61.768,51.1,78.523,30.488,63.145,22.138Z" transform="translate(39.773 30.125)"/>
    <path id="eye-right" class="cls-9" d="M71.965,27.317c1.519.058-1.765-5.925-5.63-1.519-3,3.414.127,8.046,2.32,8.434C73.064,35.007,73.857,27.928,71.965,27.317Z" transform="translate(62.472 33.987)"/>
    <path id="path2702" class="cls-9" d="M58.446,25.22c1.368-2.723-6.29-.648-4.435,5.711,1.279,4.392,6.116,1.785,6.484,1.557,4.913-3.061,1.114-11.13-2.048-7.268Z" transform="translate(40.928 33.744)"/>
    <path id="path2704" class="cls-7" d="M63.257,28.114c-3.292,6.275-12.7,21.32,1.823,21.008,13.546-.029,6.524-15.383,6.139-21.236" transform="translate(47.548 41.005)"/>
    <path id="path2706" class="cls-10" d="M58.222,41.741c2.772,1.23,10.693.729,15.548.257" transform="translate(49.453 67.238)"/>
    <path id="path2708" class="cls-7" d="M75.255,23.689C96.7,15.134,87.8,44.454,75.689,41.06" transform="translate(81.7 30.087)"/>
    <path id="path2710" class="cls-7" d="M76.561,24.994c6.154-4.58,8.509,4.638-.506,8.671" transform="translate(83.214 33.172)"/>
    <path id="path2743" class="cls-7" d="M55.8,25.221C33.391,19.666,46.2,47.5,57.737,42.488" transform="translate(21.54 34.567)"/>
    <path id="path2745" class="cls-7" d="M50.406,26.928c-6.721-3.7-7.8,5.755,1.681,8.523" transform="translate(24.74 37.591)"/>
    <path id="path2808" class="cls-7" d="M86.81,98.635c1.6,9.435,1.432,20.348-2.893,28.932-3.177,3.272-7.774-1.467-10.126,3.255.94,4.085,4.887,5.13,8.68,6.148-2.717,5.373-7.933,9.892-2.532,15.913,3.5-1.8,5.914-5.839,6.871-9.4.4,4.158-3.113,12.412,4.7,9.041,3.793-2.844,1.944-7,2.17-11.211,3.032,4.687,3.946,11.735,7.956,3.617.4-3.64-1.354-6.171-3.255-9.041-.495-3.669.819-7.514,1.447-11.211,4.609-7.794,5.917-16.474,7.233-25.316-5.251-6.9.09-16.587-4.34-23.507a34.452,34.452,0,0,0-4.34-8.318c-8.144-2.329-14.77.041-18.444,7.595C75.614,85.109,84.915,90.5,86.81,98.635Z" transform="translate(75.928 113.442)"/>
    <path id="path2796" class="cls-6" d="M70.95,81.243c.871,2.482,2.378,3.394,5.873,9.776,3.073,6.625,4.826,10.719,6.113,17.86,11.775-3.307,17.973-7.629,29.314-13.433-2.26-5.694-5.593-11.214-7.751-16.966-3.232-7.505-8.44-9.209-13.037-15.386A83.773,83.773,0,0,0,78.27,54.021" transform="translate(66.549 86.486)"/>
    <path id="path2810" class="cls-7" d="M56.227,98.883c-3.527,8.9-5.633,19.607-3.185,28.9,2.427,3.862,7.907.182,9.229,5.289-1.771,3.8-5.847,4-9.767,4.21,1.542,5.821,5.7,11.327-.833,16.092-3.052-2.485-4.571-6.938-4.765-10.627-1.253,3.984.463,12.791-6.478,7.867-3.119-3.567-.448-7.25.208-11.417-3.943,3.955-6.3,10.659-8.535,1.883.362-3.643,2.607-5.755,5.063-8.168,1.247-3.486.761-7.519.914-11.266-2.89-8.581-2.364-17.342-1.811-26.265,6.568-5.665,3.356-16.245,9.131-22.093a34.339,34.339,0,0,1,5.972-7.236c8.451-.584,14.44,3.11,16.465,11.263,2.155,10.661-8.063,14.006-11.608,21.566Z" transform="translate(9 107.154)"/>
    <path id="path2798" class="cls-6" d="M76.417,79.114C74.438,86.2,77.6,82.716,73.77,88.9c-3.426,6.449-7.36,18.757-9.03,25.816-11.582-3.935-20.99-15.042-32-21.447,2.563-5.564,9.443-11.3,11.908-16.925,3.634-7.317,7.213-7.193,12.137-13.115,4.522-3.449,5.807-8.087,15.172-8.445" transform="translate(12.206 86.933)"/>
    <text id="Cliquez_sur_moi" data-name="Cliquez sur 
moi" class="cls-11" transform="translate(84.101 187.981)"><tspan x="0.622" y="14">Cliquez </tspan><tspan x="14.867" y="31">sur </tspan><tspan x="13.075" y="48">moi</tspan></text>
  </g>
</svg>
